<svg width="380" height="294" viewBox="0 0 380 294" fill="none" xmlns="http://www.w3.org/2000/svg">
<path d="M28.106 204.252C28.0115 205.359 27.7431 206.408 27.3011 207.4C26.846 208.376 26.311 209.116 25.696 209.621L24.5353 208.9C25.0911 208.419 25.584 207.753 26.0139 206.904C26.4309 206.039 26.6812 205.117 26.7649 204.137C26.8449 203.201 26.7962 202.432 26.6189 201.83C26.4285 201.214 26.1462 200.754 25.7718 200.45C25.3987 200.132 24.9709 199.953 24.4884 199.911C23.9065 199.862 23.4236 199.992 23.0397 200.302C22.657 200.598 22.3433 201.008 22.0986 201.53C21.8396 202.051 21.6042 202.631 21.3923 203.271C21.1804 203.91 20.9615 204.549 20.7354 205.188C20.4951 205.825 20.2023 206.407 19.857 206.935C19.5129 207.449 19.0851 207.856 18.5734 208.155C18.0488 208.439 17.3891 208.547 16.5944 208.479C15.8564 208.416 15.1987 208.167 14.6211 207.732C14.0306 207.281 13.5854 206.635 13.2856 205.795C12.9715 204.953 12.8684 203.901 12.9763 202.638C13.0478 201.8 13.2394 200.981 13.551 200.178C13.8483 199.374 14.2283 198.692 14.6908 198.131L15.9013 198.771C15.421 199.373 15.0506 200.027 14.79 200.734C14.5307 201.427 14.3726 202.107 14.3156 202.774C14.2392 203.668 14.2968 204.416 14.4884 205.018C14.6799 205.621 14.9694 206.082 15.3567 206.401C15.731 206.704 16.1737 206.878 16.6846 206.922C17.2664 206.971 17.7487 206.848 18.1314 206.552C18.5153 206.242 18.8296 205.825 19.0744 205.303C19.3204 204.767 19.5493 204.179 19.7612 203.539C19.973 202.9 20.1985 202.268 20.4376 201.645C20.6778 201.008 20.97 200.433 21.3141 199.919C21.6452 199.39 22.066 198.983 22.5764 198.697C23.088 198.398 23.7341 198.282 24.5147 198.348C25.2385 198.41 25.8956 198.666 26.4861 199.117C27.0624 199.567 27.507 200.219 27.8199 201.075C28.1198 201.916 28.2152 202.975 28.106 204.252Z" fill="white"/>
<path d="M32.5505 186.166C32.1295 187.164 31.527 187.968 30.743 188.581C29.9514 189.174 29.065 189.534 28.0838 189.661C27.0894 189.783 26.0805 189.628 25.0569 189.195C24.0202 188.758 23.2051 188.143 22.6116 187.352C22.0181 186.56 21.6644 185.677 21.5506 184.701C21.4367 183.725 21.593 182.732 22.0195 181.722C22.4515 180.698 23.0567 179.887 23.8352 179.288C24.6192 178.676 25.4991 178.313 26.4748 178.199C27.456 178.072 28.4649 178.227 29.5016 178.665C30.5252 179.097 31.3403 179.711 31.9469 180.508C32.546 181.287 32.9062 182.173 33.0277 183.167C33.136 184.156 32.9769 185.156 32.5505 186.166ZM31.3104 185.643C31.6261 184.895 31.7417 184.163 31.6574 183.447C31.5599 182.726 31.2785 182.074 30.8133 181.491C30.3406 180.889 29.704 180.42 28.9035 180.082C28.0899 179.738 27.3092 179.61 26.5616 179.696C25.8195 179.77 25.1625 180.026 24.5908 180.465C24.0059 180.898 23.5584 181.482 23.2482 182.217C22.938 182.952 22.8317 183.68 22.9292 184.401C23.0136 185.117 23.2856 185.773 23.7452 186.369C24.2049 186.965 24.8415 187.435 25.6551 187.778C26.4556 188.116 27.2362 188.245 27.997 188.164C28.7446 188.077 29.4109 187.817 29.9958 187.384C30.5675 186.945 31.0057 186.365 31.3104 185.643Z" fill="white"/>
<path d="M41.8173 170.842L29.8314 160.466L30.8243 159.319L42.8101 169.696L41.8173 170.842Z" fill="white"/>
<path d="M56.269 158.562C55.452 159.055 54.6466 159.333 53.8529 159.397C53.0591 159.46 52.3075 159.29 51.598 158.886C50.9007 158.475 50.2761 157.812 49.724 156.898L46.3563 151.319L47.655 150.535L50.9343 155.967C51.5527 156.992 52.2701 157.615 53.0865 157.838C53.9079 158.041 54.7758 157.866 55.6904 157.314C56.361 156.909 56.8593 156.425 57.1851 155.863C57.5158 155.28 57.6509 154.65 57.5904 153.971C57.5422 153.285 57.2972 152.576 56.8556 151.844L53.8191 146.814L55.1178 146.03L60.9146 155.633L59.6708 156.384L58.0808 153.75L58.5691 154.104C58.6912 154.995 58.5506 155.837 58.1472 156.63C57.7486 157.403 57.1226 158.047 56.269 158.562Z" fill="white"/>
<path d="M74.9327 151.086C73.8507 151.338 72.8247 151.329 71.8547 151.058C70.8954 150.769 70.076 150.266 69.3965 149.546C68.7138 148.813 68.2464 147.906 67.9943 146.824C67.7389 145.728 67.757 144.707 68.0486 143.762C68.3401 142.816 68.8541 142.009 69.5904 141.34C70.3405 140.668 71.2566 140.206 72.3386 139.954C73.268 139.737 74.1493 139.722 74.9825 139.908C75.8156 140.094 76.5312 140.498 77.1293 141.119L76.2011 142.125C75.6972 141.658 75.1372 141.357 74.5209 141.222C73.9046 141.088 73.2704 141.097 72.6184 141.249C71.8416 141.43 71.1831 141.774 70.6429 142.28C70.0995 142.772 69.7218 143.379 69.5098 144.101C69.2978 144.824 69.292 145.615 69.4925 146.475C69.6929 147.335 70.0478 148.042 70.5571 148.596C71.0665 149.15 71.6753 149.535 72.3836 149.75C73.0887 149.951 73.8296 149.961 74.6064 149.78C75.2584 149.628 75.8312 149.356 76.3246 148.963C76.8181 148.57 77.189 148.06 77.4375 147.431L78.7149 147.923C78.4497 148.731 77.9862 149.41 77.3244 149.959C76.6594 150.494 75.8622 150.87 74.9327 151.086Z" fill="white"/>
<path d="M91.7215 149.822L92.6762 138.646L94.1877 138.775L93.2329 149.951L91.7215 149.822ZM93.6535 136.242C93.3413 136.216 93.0878 136.087 92.8931 135.856C92.6985 135.625 92.6138 135.36 92.6393 135.062C92.6648 134.764 92.7924 134.525 93.0223 134.344C93.2533 134.149 93.525 134.065 93.8372 134.092C94.1494 134.119 94.4035 134.241 94.5994 134.457C94.7953 134.674 94.8805 134.932 94.8551 135.23C94.8284 135.542 94.6995 135.795 94.4685 135.99C94.2516 136.186 93.9799 136.27 93.6535 136.242Z" fill="white"/>
<path d="M110.534 154.457C109.537 154.036 108.732 153.434 108.12 152.65C107.526 151.858 107.166 150.972 107.039 149.991C106.918 148.996 107.073 147.987 107.505 146.964C107.942 145.927 108.557 145.112 109.349 144.518C110.14 143.925 111.024 143.571 112 143.457C112.975 143.343 113.968 143.5 114.979 143.926C116.002 144.358 116.814 144.963 117.413 145.742C118.025 146.526 118.388 147.406 118.502 148.382C118.629 149.363 118.473 150.372 118.036 151.408C117.604 152.432 116.989 153.247 116.192 153.854C115.414 154.453 114.527 154.813 113.533 154.934C112.544 155.043 111.544 154.884 110.534 154.457ZM111.057 153.217C111.805 153.533 112.537 153.648 113.253 153.564C113.975 153.467 114.627 153.185 115.21 152.72C115.811 152.247 116.281 151.611 116.619 150.81C116.962 149.997 117.09 149.216 117.004 148.468C116.931 147.726 116.675 147.069 116.236 146.498C115.802 145.913 115.218 145.465 114.483 145.155C113.748 144.845 113.02 144.738 112.299 144.836C111.583 144.92 110.927 145.192 110.331 145.652C109.735 146.112 109.266 146.748 108.922 147.562C108.584 148.362 108.456 149.143 108.537 149.904C108.623 150.651 108.883 151.318 109.316 151.903C109.755 152.474 110.336 152.912 111.057 153.217Z" fill="white"/>
<path d="M134.309 156.063C134.999 156.66 135.485 157.316 135.769 158.033C136.073 158.748 136.137 159.501 135.962 160.291C135.797 161.091 135.361 161.9 134.652 162.718L130.387 167.645L129.24 166.652L133.407 161.838C134.181 160.945 134.538 160.076 134.477 159.232C134.436 158.387 134.012 157.614 133.204 156.915C132.601 156.393 131.966 156.06 131.3 155.916C130.653 155.771 130.005 155.823 129.357 156.071C128.728 156.318 128.135 156.765 127.575 157.411L123.716 161.87L122.569 160.877L129.91 152.396L131.009 153.347L128.995 155.673L129.195 155.083C129.996 154.702 130.841 154.596 131.732 154.764C132.632 154.922 133.491 155.355 134.309 156.063Z" fill="white"/>
<path d="M138.582 178.911C137.978 177.911 137.655 176.908 137.614 175.901C137.584 174.888 137.806 173.947 138.28 173.078C138.767 172.202 139.485 171.477 140.436 170.903C141.388 170.329 142.35 170.022 143.325 169.983C144.307 169.956 145.219 170.171 146.06 170.628C146.921 171.09 147.62 171.766 148.158 172.656C148.703 173.558 148.977 174.482 148.982 175.427C149.007 176.378 148.769 177.278 148.268 178.13C147.779 178.974 147.053 179.687 146.09 180.268C146.029 180.305 145.958 180.339 145.877 180.371C145.816 180.408 145.749 180.449 145.676 180.493L140.63 172.134L141.6 171.549L146.226 179.213L145.533 178.932C146.228 178.513 146.752 177.989 147.104 177.36C147.476 176.736 147.66 176.076 147.656 175.38C147.651 174.684 147.447 174 147.042 173.329C146.645 172.671 146.135 172.172 145.514 171.831C144.892 171.491 144.219 171.34 143.494 171.379C142.768 171.417 142.052 171.65 141.345 172.077L141.143 172.198C140.412 172.64 139.861 173.189 139.492 173.844C139.142 174.505 138.981 175.217 139.01 175.982C139.058 176.751 139.307 177.508 139.756 178.252C140.11 178.837 140.541 179.317 141.05 179.692C141.566 180.079 142.148 180.326 142.796 180.435L142.396 181.674C141.626 181.557 140.912 181.256 140.254 180.771C139.603 180.299 139.046 179.679 138.582 178.911Z" fill="white"/>
<path d="M145.35 195.708C145.14 194.806 145.066 193.924 145.128 193.061C145.204 192.196 145.383 191.488 145.665 190.94L146.986 191.334C146.756 191.856 146.597 192.493 146.509 193.244C146.435 193.993 146.487 194.749 146.665 195.512C146.907 196.552 147.241 197.264 147.667 197.647C148.106 198.028 148.597 198.155 149.138 198.029C149.54 197.935 149.821 197.73 149.982 197.415C150.16 197.11 150.255 196.737 150.269 196.295C150.297 195.85 150.293 195.361 150.257 194.828C150.22 194.295 150.198 193.76 150.189 193.22C150.184 192.695 150.237 192.2 150.348 191.736C150.473 191.268 150.692 190.858 151.005 190.507C151.321 190.17 151.792 189.929 152.416 189.784C153.012 189.645 153.585 189.687 154.134 189.91C154.684 190.133 155.164 190.533 155.577 191.109C156.006 191.697 156.329 192.455 156.546 193.385C156.71 194.092 156.778 194.822 156.749 195.575C156.733 196.324 156.626 196.964 156.428 197.492L155.091 197.124C155.311 196.561 155.426 195.986 155.435 195.398C155.459 194.808 155.406 194.235 155.276 193.68C155.047 192.695 154.704 192.008 154.247 191.617C153.807 191.237 153.324 191.108 152.797 191.231C152.381 191.328 152.084 191.528 151.906 191.833C151.732 192.152 151.624 192.535 151.582 192.984C151.557 193.443 151.562 193.932 151.595 194.45C151.631 194.983 151.645 195.514 151.637 196.042C151.645 196.581 151.594 197.083 151.483 197.548C151.389 198.023 151.184 198.429 150.867 198.766C150.568 199.114 150.12 199.357 149.524 199.496C148.886 199.645 148.289 199.594 147.733 199.343C147.194 199.103 146.714 198.674 146.292 198.055C145.887 197.448 145.573 196.665 145.35 195.708Z" fill="white"/>
<path d="M144.136 220.289C144.379 219.205 144.833 218.285 145.499 217.529C146.175 216.791 146.985 216.272 147.928 215.972C148.885 215.676 149.906 215.649 150.99 215.892C152.088 216.138 152.999 216.598 153.724 217.272C154.449 217.945 154.952 218.759 155.235 219.712C155.514 220.68 155.532 221.706 155.289 222.79C155.081 223.721 154.711 224.521 154.182 225.191C153.652 225.861 152.978 226.33 152.158 226.598L151.655 225.325C152.296 225.075 152.81 224.701 153.199 224.204C153.587 223.708 153.855 223.133 154.001 222.479C154.176 221.701 154.153 220.959 153.931 220.252C153.724 219.549 153.341 218.945 152.783 218.44C152.225 217.935 151.515 217.586 150.653 217.393C149.791 217.2 149 217.212 148.28 217.43C147.56 217.648 146.949 218.03 146.447 218.574C145.959 219.122 145.628 219.785 145.454 220.563C145.307 221.216 145.304 221.85 145.443 222.465C145.583 223.081 145.881 223.637 146.339 224.133L145.341 225.07C144.729 224.48 144.319 223.768 144.112 222.933C143.919 222.102 143.927 221.22 144.136 220.289Z" fill="white"/>
<path d="M138.702 234.739L148.354 240.455L147.613 241.705L144.984 240.148L145.52 240.292C146.096 240.997 146.385 241.781 146.387 242.643C146.402 243.512 146.13 244.419 145.571 245.363L144.303 244.611C144.332 244.562 144.361 244.513 144.39 244.464C144.431 244.423 144.466 244.377 144.495 244.328C145.098 243.311 145.257 242.329 144.973 241.383C144.702 240.444 143.996 239.637 142.856 238.962L137.929 236.044L138.702 234.739Z" fill="white"/>
<path d="M125.298 251.182C126.175 250.41 127.104 249.914 128.087 249.694C129.08 249.485 130.045 249.536 130.984 249.848C131.932 250.171 132.774 250.749 133.508 251.583C134.242 252.417 134.715 253.31 134.927 254.262C135.128 255.223 135.079 256.158 134.779 257.068C134.478 257.997 133.937 258.806 133.156 259.493C132.365 260.189 131.505 260.624 130.576 260.797C129.645 260.99 128.716 260.916 127.789 260.575C126.872 260.244 126.041 259.656 125.298 258.812C125.251 258.758 125.204 258.695 125.158 258.621C125.111 258.568 125.06 258.509 125.003 258.445L132.331 251.992L133.08 252.842L126.361 258.758L126.513 258.026C127.05 258.635 127.659 259.058 128.34 259.293C129.02 259.548 129.702 259.611 130.387 259.483C131.071 259.355 131.707 259.032 132.295 258.515C132.872 258.006 133.273 257.416 133.498 256.744C133.722 256.072 133.751 255.383 133.584 254.676C133.417 253.969 133.06 253.305 132.514 252.685L132.359 252.509C131.794 251.867 131.156 251.423 130.445 251.176C129.733 250.949 129.004 250.918 128.256 251.082C127.508 251.267 126.808 251.646 126.156 252.221C125.642 252.672 125.247 253.182 124.968 253.75C124.679 254.327 124.539 254.944 124.548 255.6L123.257 255.427C123.236 254.649 123.405 253.893 123.765 253.158C124.113 252.434 124.625 251.775 125.298 251.182Z" fill="white"/>
<path d="M107.03 262.218L108.013 264.493L108.233 264.84L109.876 268.645C110.255 269.521 110.794 270.088 111.494 270.344C112.181 270.605 113.009 270.527 113.976 270.109C114.643 269.821 115.229 269.436 115.735 268.954C116.24 268.472 116.623 267.957 116.883 267.411L117.96 268.179C117.629 268.849 117.148 269.461 116.518 270.012C115.893 270.577 115.175 271.034 114.364 271.385C113.031 271.961 111.86 272.071 110.853 271.715C109.838 271.377 109.04 270.535 108.458 269.188L105.696 262.794L107.03 262.218ZM110.538 260.586C111.309 260.253 112.036 260.086 112.719 260.086C113.394 260.105 113.978 260.272 114.471 260.586C114.969 260.914 115.346 261.372 115.6 261.96C115.831 262.497 115.916 263.034 115.854 263.573C115.785 264.13 115.519 264.664 115.056 265.174C114.587 265.703 113.861 266.179 112.881 266.603L109.331 268.136L108.881 267.097L112.392 265.58C113.386 265.151 114.003 264.675 114.243 264.153C114.469 263.636 114.47 263.116 114.244 262.593C113.99 262.004 113.557 261.632 112.947 261.477C112.337 261.322 111.62 261.422 110.796 261.778C110.012 262.117 109.415 262.584 109.005 263.18C108.588 263.795 108.395 264.499 108.427 265.291L107.698 264.466C107.666 263.673 107.889 262.933 108.368 262.245C108.834 261.563 109.557 261.01 110.538 260.586Z" fill="white"/>
<path d="M90.2147 265.639C91.2641 265.54 92.0991 265.748 92.7196 266.262C93.3401 266.776 93.699 267.551 93.7961 268.586L94.7806 279.073L93.2703 279.215L92.2938 268.813C92.2326 268.16 92.0222 267.672 91.6628 267.348C91.2891 267.026 90.7903 266.894 90.1664 266.952C89.4998 267.015 88.9647 267.258 88.5611 267.682L87.9274 266.648C88.1999 266.35 88.5429 266.118 88.9564 265.95C89.3557 265.784 89.7751 265.68 90.2147 265.639ZM96.4307 275.163L96.5486 276.418L89.6352 277.067L89.5174 275.812L96.4307 275.163Z" fill="white"/>
<path d="M73.975 264.573L71.5211 275.518L70.0409 275.187L72.4948 264.241L73.975 264.573ZM70.2283 277.768C70.5341 277.837 70.7679 277.999 70.9296 278.254C71.0913 278.509 71.1395 278.783 71.074 279.075C71.0086 279.367 70.8498 279.587 70.5977 279.734C70.3425 279.896 70.062 279.943 69.7562 279.874C69.4505 279.806 69.2152 279.651 69.0503 279.409C68.8855 279.168 68.8357 278.901 68.9012 278.61C68.9697 278.304 69.1316 278.07 69.3868 277.908C69.6282 277.743 69.9087 277.697 70.2283 277.768Z" fill="white"/>
<path d="M56.3014 257.769L54.8686 269.957L53.5082 269.151L54.8766 257.868L55.52 258.249L46.2285 264.839L44.9417 264.077L54.9594 256.974L56.3014 257.769Z" fill="white"/>
<path d="M39.4381 243.253L37.5779 244.891L37.3156 245.207L34.2047 247.946C33.4885 248.577 33.1167 249.264 33.0896 250.01C33.053 250.744 33.383 251.507 34.0795 252.298C34.5595 252.843 35.1069 253.281 35.7216 253.613C36.3363 253.945 36.944 254.15 37.5445 254.229L37.1464 255.49C36.4065 255.383 35.6767 255.114 34.9572 254.685C34.2269 254.265 33.57 253.724 32.9865 253.061C32.0264 251.971 31.5601 250.891 31.5876 249.823C31.595 248.754 32.1493 247.735 33.2504 246.765L38.478 242.162L39.4381 243.253ZM42.0738 246.085C42.6291 246.715 43.0123 247.355 43.2233 248.005C43.4143 248.652 43.4363 249.259 43.2893 249.825C43.1316 250.401 42.8122 250.9 42.3312 251.324C41.8929 251.71 41.4079 251.956 40.8763 252.064C40.3245 252.17 39.7347 252.082 39.1067 251.8C38.4587 251.516 37.7817 250.974 37.0757 250.172L34.5202 247.27L35.3701 246.521L37.8974 249.392C38.6127 250.204 39.2559 250.644 39.8269 250.71C40.3885 250.766 40.8831 250.606 41.3108 250.229C41.7918 249.806 42.012 249.28 41.9712 248.652C41.9304 248.023 41.6135 247.372 41.0205 246.699C40.4557 246.057 39.8266 245.634 39.1333 245.428C38.4198 245.222 37.691 245.256 36.9468 245.532L37.5066 244.583C38.2508 244.308 39.0239 244.291 39.8259 244.534C40.6185 244.766 41.3678 245.283 42.0738 246.085Z" fill="white"/>
<path d="M31.6745 229.906C32.0417 230.756 32.2714 231.611 32.3636 232.471C32.4428 233.337 32.3925 234.064 32.2128 234.654L30.8433 234.501C30.9764 233.947 31.0194 233.292 30.9723 232.537C30.9122 231.787 30.7268 231.052 30.4161 230.333C29.9925 229.353 29.5371 228.711 29.05 228.41C28.5497 228.114 28.0447 228.076 27.5347 228.296C27.1555 228.46 26.915 228.711 26.8131 229.05C26.6924 229.382 26.6646 229.766 26.7294 230.204C26.7812 230.647 26.8723 231.127 27.0029 231.645C27.1334 232.162 27.2509 232.686 27.3552 233.215C27.454 233.731 27.49 234.227 27.4633 234.704C27.4236 235.187 27.2808 235.629 27.0351 236.03C26.7837 236.417 26.3638 236.738 25.7754 236.993C25.2131 237.236 24.6419 237.296 24.0618 237.174C23.4817 237.053 22.9375 236.745 22.4292 236.25C21.9022 235.749 21.4495 235.06 21.071 234.184C20.783 233.517 20.5864 232.811 20.4814 232.065C20.3633 231.324 20.3549 230.676 20.4562 230.121L21.8368 230.246C21.7207 230.839 21.7102 231.425 21.8054 232.005C21.8875 232.59 22.0415 233.144 22.2675 233.667C22.6685 234.595 23.1285 235.211 23.6474 235.515C24.1477 235.811 24.6462 235.851 25.1431 235.637C25.5354 235.467 25.7918 235.217 25.9124 234.885C26.0274 234.541 26.0655 234.144 26.0268 233.696C25.9694 233.239 25.8783 232.759 25.7534 232.254C25.6228 231.737 25.5147 231.217 25.4291 230.695C25.3247 230.166 25.2859 229.663 25.3125 229.186C25.3205 228.702 25.4502 228.266 25.7015 227.878C25.9342 227.483 26.3317 227.164 26.8939 226.921C27.4954 226.661 28.0919 226.605 28.6833 226.753C29.256 226.893 29.805 227.23 30.3302 227.764C30.8367 228.29 31.2848 229.004 31.6745 229.906Z" fill="white"/>
<path d="M78.2358 226.545C81.4175 212.474 95.4032 203.647 109.474 206.829L240.89 236.544C254.96 239.726 263.788 253.712 260.606 267.782C257.424 281.853 243.439 290.68 229.368 287.499L97.9522 257.783C83.8815 254.602 75.0542 240.616 78.2358 226.545Z" fill="#AE88FF"/>
<path d="M231.819 268.416C230.793 268.183 230.059 267.728 229.62 267.048C229.18 266.369 229.076 265.516 229.308 264.489L231.423 255.134L233.271 255.552L231.173 264.83C231.049 265.382 231.088 265.836 231.29 266.192C231.506 266.551 231.87 266.788 232.384 266.904C232.961 267.035 233.479 266.983 233.936 266.749L234.213 268.208C233.876 268.388 233.495 268.491 233.071 268.517C232.66 268.545 232.243 268.511 231.819 268.416ZM228.842 258.496L229.186 256.975L235.692 258.446L235.348 259.967L228.842 258.496Z" fill="#1E1E1E"/>
<path d="M223.016 255.479C223.85 255.667 224.545 255.993 225.102 256.456C225.671 256.922 226.061 257.523 226.272 258.259C226.484 258.994 226.476 259.863 226.25 260.864L224.922 266.735L223.074 266.317L224.354 260.657C224.577 259.669 224.502 258.87 224.127 258.259C223.766 257.651 223.149 257.249 222.276 257.051C221.621 256.903 221.021 256.903 220.476 257.049C219.93 257.195 219.466 257.488 219.083 257.928C218.713 258.37 218.444 258.964 218.276 259.708L217.088 264.963L215.24 264.545L217.547 254.343L219.318 254.744L218.695 257.496L218.572 256.699C219.056 256.108 219.687 255.704 220.464 255.488C221.241 255.273 222.092 255.27 223.016 255.479Z" fill="#1E1E1E"/>
<path d="M207.97 263.023C206.879 262.776 205.967 262.334 205.235 261.696C204.515 261.061 204.013 260.3 203.728 259.413C203.456 258.529 203.434 257.58 203.663 256.566C203.893 255.552 204.314 254.703 204.927 254.019C205.553 253.338 206.301 252.866 207.169 252.604C208.054 252.331 208.984 252.306 209.959 252.526C210.947 252.75 211.77 253.165 212.429 253.773C213.087 254.38 213.538 255.13 213.782 256.021C214.041 256.903 214.052 257.869 213.814 258.922C213.797 258.999 213.77 259.087 213.734 259.187C213.711 259.29 213.682 259.384 213.649 259.471L204.968 257.508L205.268 256.18L212.987 257.925L212.132 258.218C212.293 257.566 212.29 256.952 212.124 256.375C211.958 255.797 211.656 255.311 211.22 254.916C210.799 254.51 210.261 254.233 209.606 254.085C208.965 253.94 208.36 253.959 207.793 254.141C207.229 254.31 206.746 254.626 206.345 255.088C205.946 255.537 205.672 256.096 205.521 256.763L205.451 257.071C205.297 257.751 205.313 258.396 205.5 259.004C205.701 259.603 206.051 260.114 206.549 260.537C207.047 260.959 207.662 261.254 208.393 261.419C208.996 261.555 209.565 261.576 210.099 261.481C210.646 261.389 211.152 261.179 211.617 260.853L212.367 262.277C211.784 262.712 211.113 262.992 210.356 263.117C209.612 263.246 208.817 263.214 207.97 263.023Z" fill="#1E1E1E"/>
<path d="M198.204 249.868C199.026 250.054 199.715 250.378 200.271 250.841C200.827 251.304 201.204 251.902 201.403 252.635C201.614 253.371 201.607 254.239 201.38 255.24L200.053 261.111L198.205 260.693L199.485 255.034C199.708 254.046 199.645 253.249 199.297 252.644C198.948 252.039 198.356 251.643 197.522 251.454C196.906 251.315 196.338 251.321 195.818 251.473C195.298 251.626 194.853 251.923 194.483 252.365C194.126 252.811 193.864 253.406 193.695 254.15L192.507 259.405L190.659 258.987L191.939 253.328C192.162 252.34 192.1 251.543 191.751 250.938C191.415 250.336 190.823 249.939 189.976 249.748C189.373 249.611 188.812 249.619 188.292 249.772C187.772 249.924 187.327 250.221 186.957 250.663C186.587 251.106 186.318 251.699 186.15 252.444L184.961 257.699L183.113 257.281L185.42 247.079L187.191 247.479L186.578 250.193L186.445 249.435C186.917 248.84 187.529 248.432 188.28 248.211C189.032 247.99 189.85 247.979 190.736 248.179C191.711 248.4 192.496 248.834 193.092 249.481C193.69 250.116 193.988 250.945 193.986 251.97L193.305 251.492C193.79 250.779 194.471 250.272 195.348 249.971C196.226 249.67 197.178 249.636 198.204 249.868Z" fill="#1E1E1E"/>
<path d="M175.844 255.758C174.753 255.512 173.841 255.07 173.109 254.432C172.389 253.797 171.886 253.036 171.601 252.149C171.329 251.264 171.308 250.315 171.537 249.301C171.766 248.288 172.188 247.439 172.801 246.754C173.427 246.073 174.175 245.601 175.043 245.339C175.928 245.067 176.857 245.041 177.833 245.262C178.821 245.485 179.644 245.901 180.303 246.508C180.961 247.116 181.412 247.865 181.656 248.757C181.915 249.638 181.926 250.605 181.688 251.657C181.67 251.734 181.644 251.823 181.608 251.922C181.584 252.025 181.556 252.12 181.523 252.207L172.842 250.244L173.142 248.916L180.861 250.661L180.006 250.953C180.167 250.302 180.164 249.687 179.998 249.11C179.831 248.533 179.53 248.047 179.093 247.651C178.672 247.246 178.135 246.969 177.48 246.821C176.838 246.676 176.234 246.694 175.667 246.876C175.102 247.046 174.62 247.361 174.218 247.824C173.82 248.273 173.545 248.831 173.394 249.499L173.325 249.807C173.171 250.487 173.187 251.131 173.373 251.74C173.575 252.339 173.925 252.849 174.423 253.272C174.921 253.695 175.536 253.989 176.267 254.155C176.87 254.291 177.439 254.312 177.973 254.217C178.52 254.124 179.026 253.915 179.491 253.589L180.241 255.013C179.657 255.447 178.987 255.727 178.23 255.853C177.486 255.981 176.691 255.95 175.844 255.758Z" fill="#1E1E1E"/>
<path d="M161.632 256.47C160.695 256.258 159.814 255.918 158.99 255.448C158.175 254.994 157.547 254.461 157.106 253.848L158.313 252.624C158.695 253.142 159.206 253.595 159.847 253.983C160.485 254.383 161.183 254.669 161.94 254.84C163.146 255.113 164.095 255.031 164.788 254.594C165.48 254.157 165.957 253.361 166.218 252.206L166.705 250.05L167.355 248.072L167.72 246.01L168.351 243.219L170.103 243.615L168.109 252.431C167.703 254.228 166.955 255.448 165.865 256.092C164.775 256.736 163.364 256.862 161.632 256.47ZM162.367 252.145C161.379 251.921 160.54 251.516 159.85 250.928C159.176 250.33 158.692 249.607 158.398 248.759C158.117 247.913 158.087 247.002 158.308 246.027C158.531 245.039 158.95 244.23 159.565 243.6C160.195 242.96 160.941 242.522 161.804 242.285C162.68 242.051 163.612 242.046 164.6 242.27C165.473 242.467 166.228 242.827 166.865 243.348C167.505 243.857 167.955 244.526 168.213 245.353C168.484 246.183 168.493 247.156 168.24 248.273C167.991 249.376 167.565 250.245 166.963 250.877C166.375 251.513 165.679 251.936 164.876 252.145C164.076 252.342 163.24 252.342 162.367 252.145ZM162.944 250.576C163.625 250.729 164.26 250.725 164.85 250.561C165.44 250.398 165.939 250.099 166.347 249.666C166.768 249.235 167.053 248.692 167.201 248.038C167.349 247.383 167.325 246.771 167.131 246.201C166.949 245.634 166.625 245.156 166.16 244.767C165.698 244.366 165.126 244.088 164.446 243.935C163.766 243.781 163.125 243.784 162.522 243.945C161.935 244.095 161.43 244.386 161.009 244.817C160.601 245.25 160.323 245.794 160.175 246.449C160.027 247.103 160.044 247.714 160.226 248.282C160.421 248.852 160.749 249.337 161.212 249.739C161.687 250.143 162.264 250.422 162.944 250.576Z" fill="#1E1E1E"/>
<path d="M152.865 250.441L153.352 248.285L153.348 247.859L154.179 244.183C154.356 243.4 154.261 242.744 153.895 242.216C153.545 241.679 152.914 241.307 152.003 241.101C151.4 240.964 150.786 240.933 150.162 241.008C149.541 241.07 148.994 241.223 148.521 241.467L148.064 239.906C148.686 239.602 149.387 239.423 150.168 239.371C150.965 239.308 151.767 239.368 152.576 239.551C153.975 239.867 154.976 240.451 155.579 241.302C156.182 242.154 156.326 243.279 156.01 244.677L154.617 250.837L152.865 250.441ZM149.489 249.799C148.732 249.628 148.094 249.349 147.575 248.962C147.068 248.577 146.711 248.126 146.505 247.607C146.301 247.075 146.265 246.521 146.396 245.943C146.52 245.391 146.762 244.92 147.12 244.529C147.491 244.141 148.002 243.879 148.654 243.743C149.318 243.609 150.157 243.657 151.17 243.887L154.404 244.618L154.104 245.946L150.947 245.232C150.023 245.023 149.366 245.037 148.975 245.272C148.585 245.508 148.34 245.843 148.242 246.28C148.129 246.78 148.236 247.229 148.564 247.627C148.895 248.013 149.414 248.285 150.12 248.444C150.813 248.601 151.45 248.584 152.033 248.392C152.629 248.203 153.109 247.839 153.474 247.301L153.552 248.654C153.172 249.202 152.633 249.586 151.936 249.806C151.242 250.013 150.426 250.011 149.489 249.799Z" fill="#1E1E1E"/>
<path d="M141.206 236.98C142.04 237.168 142.735 237.494 143.291 237.957C143.86 238.423 144.251 239.024 144.462 239.76C144.673 240.495 144.666 241.364 144.44 242.365L143.112 248.236L141.264 247.818L142.544 242.159C142.767 241.171 142.692 240.371 142.317 239.76C141.955 239.153 141.338 238.75 140.466 238.553C139.811 238.405 139.211 238.404 138.665 238.55C138.12 238.697 137.656 238.99 137.273 239.429C136.903 239.872 136.634 240.465 136.466 241.209L135.277 246.464L133.43 246.046L135.736 235.844L137.507 236.245L136.885 238.997L136.762 238.201C137.246 237.609 137.877 237.205 138.654 236.99C139.431 236.774 140.282 236.771 141.206 236.98Z" fill="#1E1E1E"/>
<path d="M128.258 244.877L128.746 242.721L128.741 242.295L129.572 238.619C129.749 237.836 129.655 237.18 129.288 236.652C128.938 236.115 128.307 235.743 127.396 235.537C126.793 235.4 126.179 235.369 125.555 235.444C124.934 235.506 124.387 235.659 123.914 235.903L123.457 234.343C124.079 234.038 124.781 233.859 125.561 233.807C126.358 233.744 127.16 233.804 127.969 233.987C129.368 234.303 130.369 234.887 130.972 235.738C131.575 236.59 131.719 237.715 131.403 239.113L130.01 245.273L128.258 244.877ZM124.883 244.235C124.125 244.064 123.487 243.785 122.968 243.398C122.461 243.013 122.105 242.562 121.898 242.043C121.695 241.511 121.658 240.957 121.789 240.379C121.913 239.827 122.155 239.356 122.513 238.965C122.884 238.577 123.395 238.315 124.047 238.179C124.711 238.045 125.55 238.094 126.563 238.323L129.797 239.054L129.497 240.382L126.34 239.668C125.416 239.459 124.759 239.473 124.368 239.708C123.978 239.944 123.733 240.279 123.635 240.716C123.522 241.216 123.629 241.666 123.957 242.063C124.288 242.449 124.807 242.721 125.513 242.881C126.206 243.037 126.844 243.02 127.427 242.828C128.022 242.639 128.503 242.275 128.867 241.737L128.945 243.09C128.565 243.638 128.027 244.022 127.329 244.242C126.635 244.449 125.819 244.447 124.883 244.235Z" fill="#1E1E1E"/>
<path d="M103.81 239.349L106.857 225.874L108.435 226.231L112.177 237.781L111.33 237.589L119.6 228.756L121.178 229.113L118.151 242.592L116.303 242.174L118.673 231.601L119.116 231.702L111.783 239.432L110.898 239.232L107.566 229.09L108.047 229.199L105.658 239.767L103.81 239.349Z" fill="#1E1E1E"/>
<path d="M288.627 152.051C290.02 150.375 292.592 150.375 293.985 152.051L307.195 167.951C307.998 168.917 309.259 169.376 310.495 169.152L330.835 165.463C332.979 165.075 334.95 166.728 334.939 168.907L334.838 189.579C334.832 190.835 335.503 191.997 336.594 192.62L354.547 202.869C356.439 203.949 356.886 206.482 355.477 208.145L342.113 223.915C341.3 224.874 341.067 226.196 341.503 227.374L348.667 246.764C349.423 248.808 348.136 251.036 345.989 251.404L325.614 254.895C324.375 255.107 323.347 255.969 322.923 257.152L315.948 276.611C315.213 278.663 312.795 279.542 310.914 278.444L293.062 268.021C291.977 267.387 290.635 267.387 289.55 268.021L271.698 278.444C269.816 279.542 267.399 278.663 266.664 276.611L259.688 257.152C259.264 255.969 258.236 255.107 256.998 254.895L236.623 251.404C234.475 251.036 233.189 248.808 233.944 246.764L241.109 227.374C241.544 226.196 241.311 224.874 240.499 223.915L227.135 208.145C225.726 206.482 226.172 203.949 228.065 202.869L246.017 192.62C247.108 191.997 247.779 190.835 247.773 189.579L247.673 168.907C247.662 166.728 249.633 165.075 251.777 165.463L272.117 169.152C273.353 169.376 274.614 168.917 275.417 167.951L288.627 152.051Z" fill="#88E2FF"/>
<path d="M305.259 236.893C304.47 236.893 303.756 236.719 303.117 236.37C302.491 236.011 301.991 235.482 301.62 234.786C301.26 234.089 301.08 233.219 301.08 232.174C301.08 231.129 301.266 230.258 301.637 229.562C302.02 228.865 302.525 228.343 303.152 227.994C303.791 227.646 304.493 227.472 305.259 227.472C306.165 227.472 306.966 227.669 307.662 228.064C308.359 228.459 308.91 229.01 309.317 229.718C309.723 230.415 309.926 231.233 309.926 232.174C309.926 233.114 309.723 233.938 309.317 234.646C308.91 235.355 308.359 235.906 307.662 236.301C306.966 236.695 306.165 236.893 305.259 236.893ZM300.366 236.788V223.867H302.038V230.014L301.864 232.156L301.968 234.298V236.788H300.366ZM305.12 235.43C305.712 235.43 306.24 235.297 306.705 235.03C307.181 234.763 307.552 234.385 307.819 233.898C308.098 233.398 308.237 232.824 308.237 232.174C308.237 231.512 308.098 230.943 307.819 230.467C307.552 229.98 307.181 229.602 306.705 229.335C306.24 229.068 305.712 228.935 305.12 228.935C304.54 228.935 304.011 229.068 303.535 229.335C303.071 229.602 302.7 229.98 302.421 230.467C302.154 230.943 302.02 231.512 302.02 232.174C302.02 232.824 302.154 233.398 302.421 233.898C302.7 234.385 303.071 234.763 303.535 235.03C304.011 235.297 304.54 235.43 305.12 235.43Z" fill="#1E1E1E"/>
<path d="M293.813 236.893C292.827 236.893 291.956 236.69 291.201 236.283C290.458 235.877 289.878 235.32 289.46 234.612C289.054 233.904 288.85 233.091 288.85 232.174C288.85 231.257 289.048 230.444 289.443 229.736C289.849 229.028 290.4 228.476 291.097 228.082C291.805 227.675 292.6 227.472 293.482 227.472C294.376 227.472 295.166 227.67 295.851 228.064C296.536 228.459 297.07 229.016 297.453 229.736C297.847 230.444 298.045 231.274 298.045 232.226C298.045 232.296 298.039 232.377 298.027 232.47C298.027 232.563 298.022 232.65 298.01 232.731H290.156V231.53H297.139L296.46 231.947C296.472 231.355 296.35 230.827 296.095 230.363C295.839 229.898 295.485 229.539 295.032 229.283C294.591 229.016 294.075 228.883 293.482 228.883C292.902 228.883 292.385 229.016 291.933 229.283C291.48 229.539 291.126 229.904 290.87 230.38C290.615 230.845 290.487 231.379 290.487 231.982V232.261C290.487 232.876 290.627 233.428 290.905 233.915C291.195 234.391 291.596 234.763 292.107 235.03C292.618 235.297 293.204 235.43 293.866 235.43C294.411 235.43 294.905 235.337 295.346 235.152C295.798 234.966 296.193 234.687 296.53 234.316L297.453 235.395C297.035 235.883 296.512 236.254 295.886 236.51C295.27 236.765 294.58 236.893 293.813 236.893Z" fill="#1E1E1E"/>
<path d="M276.247 236.788L272.817 227.559H274.401L277.449 235.918H276.7L279.869 227.559H281.28L284.379 235.918H283.648L286.765 227.559H288.262L284.815 236.788H283.213L280.304 229.161H280.792L277.849 236.788H276.247Z" fill="#1E1E1E"/>
<path d="M331.154 215.997C330.225 215.997 329.401 215.794 328.681 215.387C327.961 214.981 327.392 214.424 326.974 213.716C326.556 212.996 326.348 212.183 326.348 211.278C326.348 210.36 326.556 209.548 326.974 208.84C327.392 208.132 327.961 207.58 328.681 207.185C329.401 206.779 330.225 206.576 331.154 206.576C332.071 206.576 332.889 206.779 333.609 207.185C334.34 207.58 334.909 208.132 335.316 208.84C335.733 209.536 335.942 210.349 335.942 211.278C335.942 212.195 335.733 213.007 335.316 213.716C334.909 214.424 334.34 214.981 333.609 215.387C332.889 215.794 332.071 215.997 331.154 215.997ZM331.154 214.534C331.746 214.534 332.274 214.4 332.738 214.133C333.214 213.866 333.586 213.489 333.853 213.002C334.12 212.502 334.253 211.928 334.253 211.278C334.253 210.616 334.12 210.047 333.853 209.571C333.586 209.083 333.214 208.706 332.738 208.439C332.274 208.172 331.746 208.039 331.154 208.039C330.562 208.039 330.033 208.172 329.569 208.439C329.105 208.706 328.733 209.083 328.455 209.571C328.176 210.047 328.037 210.616 328.037 211.278C328.037 211.928 328.176 212.502 328.455 213.002C328.733 213.489 329.105 213.866 329.569 214.133C330.033 214.4 330.562 214.534 331.154 214.534Z" fill="#1E1E1E"/>
<path d="M322.337 215.892V202.971H324.009V215.892H322.337Z" fill="#1E1E1E"/>
<path d="M317.474 215.892V202.971H319.145V215.892H317.474Z" fill="#1E1E1E"/>
<path d="M310.373 215.997C309.444 215.997 308.62 215.794 307.9 215.387C307.18 214.981 306.612 214.424 306.194 213.716C305.776 212.996 305.567 212.183 305.567 211.278C305.567 210.36 305.776 209.548 306.194 208.84C306.612 208.132 307.18 207.58 307.9 207.185C308.62 206.779 309.444 206.576 310.373 206.576C311.29 206.576 312.109 206.779 312.828 207.185C313.56 207.58 314.129 208.132 314.535 208.84C314.953 209.536 315.162 210.349 315.162 211.278C315.162 212.195 314.953 213.007 314.535 213.716C314.129 214.424 313.56 214.981 312.828 215.387C312.109 215.794 311.29 215.997 310.373 215.997ZM310.373 214.534C310.965 214.534 311.493 214.4 311.958 214.133C312.434 213.866 312.805 213.489 313.072 213.002C313.339 212.502 313.473 211.928 313.473 211.278C313.473 210.616 313.339 210.047 313.072 209.571C312.805 209.083 312.434 208.706 311.958 208.439C311.493 208.172 310.965 208.039 310.373 208.039C309.781 208.039 309.253 208.172 308.788 208.439C308.324 208.706 307.952 209.083 307.674 209.571C307.395 210.047 307.256 210.616 307.256 211.278C307.256 211.928 307.395 212.502 307.674 213.002C307.952 213.489 308.324 213.866 308.788 214.133C309.253 214.4 309.781 214.534 310.373 214.534Z" fill="#1E1E1E"/>
<path d="M299.482 215.892V206.663H301.084V209.171L300.927 208.544C301.183 207.905 301.612 207.418 302.216 207.081C302.819 206.744 303.562 206.576 304.445 206.576V208.195C304.375 208.184 304.305 208.178 304.236 208.178C304.178 208.178 304.12 208.178 304.062 208.178C303.168 208.178 302.46 208.445 301.937 208.979C301.415 209.513 301.154 210.285 301.154 211.295V215.892H299.482Z" fill="#1E1E1E"/>
<path d="M292.459 215.892V206.663H294.061V209.171L293.904 208.544C294.159 207.905 294.589 207.418 295.193 207.081C295.796 206.744 296.539 206.576 297.421 206.576V208.195C297.352 208.184 297.282 208.178 297.213 208.178C297.154 208.178 297.096 208.178 297.038 208.178C296.144 208.178 295.436 208.445 294.914 208.979C294.392 209.513 294.13 210.285 294.13 211.295V215.892H292.459Z" fill="#1E1E1E"/>
<path d="M287.78 215.892V213.942L287.693 213.576V210.25C287.693 209.542 287.484 208.996 287.066 208.613C286.66 208.219 286.045 208.021 285.221 208.021C284.675 208.021 284.141 208.114 283.618 208.3C283.096 208.474 282.655 208.712 282.295 209.014L281.598 207.76C282.074 207.377 282.643 207.087 283.305 206.889C283.978 206.68 284.681 206.576 285.412 206.576C286.677 206.576 287.653 206.884 288.338 207.499C289.022 208.114 289.365 209.054 289.365 210.32V215.892H287.78ZM284.75 215.997C284.065 215.997 283.462 215.881 282.939 215.648C282.429 215.416 282.034 215.097 281.755 214.691C281.477 214.273 281.337 213.803 281.337 213.28C281.337 212.781 281.453 212.328 281.686 211.922C281.929 211.516 282.318 211.191 282.852 210.947C283.398 210.703 284.129 210.581 285.046 210.581H287.972V211.783H285.116C284.28 211.783 283.717 211.922 283.427 212.201C283.137 212.479 282.992 212.816 282.992 213.211C282.992 213.663 283.172 214.029 283.531 214.308C283.891 214.575 284.39 214.708 285.029 214.708C285.656 214.708 286.201 214.569 286.666 214.29C287.142 214.012 287.484 213.605 287.693 213.071L288.024 214.221C287.804 214.766 287.415 215.201 286.857 215.527C286.3 215.84 285.598 215.997 284.75 215.997Z" fill="#1E1E1E"/>
<path d="M275.974 215.997C275.208 215.997 274.477 215.892 273.78 215.683C273.095 215.474 272.555 215.219 272.161 214.917L272.857 213.594C273.252 213.861 273.74 214.087 274.32 214.273C274.9 214.458 275.493 214.551 276.096 214.551C276.874 214.551 277.431 214.441 277.768 214.221C278.116 214 278.29 213.692 278.29 213.298C278.29 213.007 278.186 212.781 277.977 212.618C277.768 212.456 277.489 212.334 277.141 212.253C276.804 212.171 276.427 212.102 276.009 212.044C275.591 211.974 275.173 211.893 274.755 211.8C274.337 211.696 273.954 211.556 273.606 211.382C273.258 211.196 272.979 210.947 272.77 210.633C272.561 210.308 272.457 209.879 272.457 209.345C272.457 208.787 272.613 208.3 272.927 207.882C273.24 207.464 273.681 207.145 274.25 206.924C274.831 206.692 275.516 206.576 276.305 206.576C276.909 206.576 277.518 206.651 278.134 206.802C278.76 206.942 279.271 207.145 279.666 207.412L278.952 208.735C278.534 208.457 278.099 208.265 277.646 208.161C277.193 208.056 276.74 208.004 276.288 208.004C275.556 208.004 275.011 208.126 274.651 208.37C274.291 208.602 274.111 208.904 274.111 209.275C274.111 209.588 274.216 209.832 274.424 210.006C274.645 210.169 274.924 210.297 275.26 210.39C275.609 210.482 275.992 210.564 276.41 210.633C276.828 210.691 277.245 210.773 277.663 210.877C278.081 210.97 278.459 211.103 278.795 211.278C279.144 211.452 279.422 211.696 279.631 212.009C279.852 212.322 279.962 212.74 279.962 213.263C279.962 213.82 279.799 214.302 279.474 214.708C279.149 215.114 278.691 215.434 278.099 215.666C277.507 215.886 276.799 215.997 275.974 215.997Z" fill="#1E1E1E"/>
<path d="M266.775 215.997C265.788 215.997 264.917 215.794 264.163 215.387C263.42 214.981 262.839 214.424 262.421 213.716C262.015 213.007 261.812 212.195 261.812 211.278C261.812 210.36 262.009 209.548 262.404 208.84C262.81 208.132 263.362 207.58 264.058 207.185C264.766 206.779 265.561 206.576 266.444 206.576C267.338 206.576 268.127 206.773 268.812 207.168C269.497 207.563 270.031 208.12 270.414 208.84C270.809 209.548 271.006 210.378 271.006 211.33C271.006 211.399 271 211.481 270.989 211.574C270.989 211.667 270.983 211.754 270.971 211.835H263.118V210.633H270.101L269.421 211.051C269.433 210.459 269.311 209.931 269.056 209.467C268.8 209.002 268.446 208.642 267.994 208.387C267.552 208.12 267.036 207.986 266.444 207.986C265.863 207.986 265.347 208.12 264.894 208.387C264.441 208.642 264.087 209.008 263.832 209.484C263.576 209.948 263.449 210.482 263.449 211.086V211.365C263.449 211.98 263.588 212.531 263.867 213.019C264.157 213.495 264.557 213.866 265.068 214.133C265.579 214.4 266.165 214.534 266.827 214.534C267.372 214.534 267.866 214.441 268.307 214.255C268.76 214.07 269.154 213.791 269.491 213.419L270.414 214.499C269.996 214.987 269.474 215.358 268.847 215.614C268.232 215.869 267.541 215.997 266.775 215.997Z" fill="#1E1E1E"/>
<path d="M248.522 215.892V203.703H253.659C254.959 203.703 256.103 203.958 257.09 204.469C258.088 204.98 258.86 205.694 259.406 206.611C259.963 207.528 260.242 208.59 260.242 209.797C260.242 211.005 259.963 212.067 259.406 212.984C258.86 213.901 258.088 214.615 257.09 215.126C256.103 215.637 254.959 215.892 253.659 215.892H248.522ZM250.264 214.377H253.555C254.565 214.377 255.435 214.186 256.167 213.803C256.91 213.419 257.484 212.885 257.891 212.2C258.297 211.504 258.5 210.703 258.5 209.797C258.5 208.88 258.297 208.079 257.891 207.394C257.484 206.709 256.91 206.175 256.167 205.792C255.435 205.409 254.565 205.218 253.555 205.218H250.264V214.377Z" fill="#1E1E1E"/>
<path d="M151.373 93.0407C154.555 78.97 168.54 70.1427 182.611 73.3244L351.327 111.474C365.397 114.656 374.225 128.642 371.043 142.712C367.861 156.783 353.876 165.61 339.805 162.429L171.089 124.279C157.019 121.097 148.191 107.111 151.373 93.0407Z" fill="#FB5ECF"/>
<path d="M338.758 143.148L339.245 140.992L339.241 140.566L340.072 136.89C340.249 136.107 340.154 135.451 339.788 134.923C339.438 134.386 338.807 134.014 337.896 133.808C337.292 133.671 336.679 133.64 336.055 133.715C335.434 133.777 334.887 133.93 334.414 134.174L333.957 132.614C334.579 132.309 335.28 132.13 336.061 132.078C336.858 132.015 337.66 132.075 338.469 132.258C339.867 132.574 340.868 133.158 341.472 134.009C342.075 134.861 342.219 135.986 341.902 137.384L340.51 143.544L338.758 143.148ZM335.382 142.506C334.625 142.335 333.987 142.056 333.467 141.669C332.961 141.284 332.604 140.833 332.398 140.314C332.194 139.782 332.158 139.228 332.288 138.65C332.413 138.098 332.655 137.627 333.013 137.236C333.384 136.848 333.895 136.586 334.546 136.45C335.21 136.316 336.049 136.365 337.063 136.594L340.297 137.325L339.997 138.653L336.84 137.939C335.916 137.73 335.259 137.744 334.868 137.979C334.478 138.215 334.233 138.55 334.135 138.987C334.021 139.487 334.129 139.936 334.457 140.334C334.788 140.72 335.307 140.992 336.012 141.152C336.705 141.308 337.343 141.291 337.926 141.099C338.522 140.91 339.002 140.546 339.367 140.008L339.445 141.361C339.065 141.909 338.526 142.293 337.829 142.513C337.135 142.72 336.319 142.718 335.382 142.506Z" fill="#1E1E1E"/>
<path d="M325.848 140.35C324.809 140.115 323.929 139.68 323.21 139.046C322.503 138.414 322.007 137.654 321.722 136.767C321.437 135.879 321.409 134.929 321.638 133.915C321.867 132.901 322.301 132.055 322.94 131.377C323.579 130.699 324.352 130.233 325.26 129.979C326.183 129.716 327.164 129.701 328.203 129.937C329.127 130.145 329.906 130.517 330.541 131.052C331.191 131.577 331.634 132.243 331.869 133.052L330.259 133.639C330.039 133.063 329.711 132.604 329.276 132.263C328.856 131.912 328.37 131.674 327.818 131.549C327.151 131.398 326.521 131.411 325.928 131.587C325.335 131.763 324.824 132.086 324.394 132.555C323.967 133.012 323.671 133.606 323.505 134.337C323.34 135.069 323.35 135.739 323.536 136.347C323.722 136.956 324.045 137.467 324.505 137.882C324.964 138.296 325.527 138.578 326.195 138.729C326.747 138.854 327.286 138.855 327.813 138.731C328.356 138.597 328.851 138.318 329.297 137.893L330.502 139.096C329.945 139.712 329.257 140.13 328.438 140.349C327.636 140.559 326.772 140.559 325.848 140.35Z" fill="#1E1E1E"/>
<path d="M313.758 137.495L316.065 127.293L317.836 127.693L317.209 130.465L317.193 129.733C317.635 129.091 318.231 128.66 318.983 128.438C319.734 128.217 320.598 128.217 321.573 128.437L321.168 130.227C321.094 130.197 321.018 130.173 320.941 130.156C320.877 130.141 320.813 130.127 320.749 130.112C319.761 129.889 318.911 130.007 318.2 130.467C317.489 130.927 317.008 131.715 316.755 132.831L315.606 137.913L313.758 137.495Z" fill="#1E1E1E"/>
<path d="M308.587 136.326L309.074 134.17L309.069 133.744L309.901 130.067C310.078 129.285 309.983 128.629 309.617 128.101C309.266 127.563 308.635 127.191 307.724 126.985C307.121 126.849 306.508 126.818 305.884 126.893C305.263 126.955 304.716 127.108 304.242 127.351L303.786 125.791C304.408 125.487 305.109 125.308 305.89 125.255C306.686 125.193 307.489 125.253 308.297 125.436C309.696 125.752 310.697 126.336 311.301 127.187C311.904 128.038 312.047 129.163 311.731 130.562L310.338 136.722L308.587 136.326ZM305.211 135.684C304.454 135.513 303.816 135.234 303.296 134.846C302.79 134.462 302.433 134.01 302.227 133.492C302.023 132.96 301.987 132.406 302.117 131.828C302.242 131.276 302.483 130.805 302.842 130.414C303.213 130.025 303.724 129.763 304.375 129.627C305.039 129.494 305.878 129.542 306.892 129.771L310.126 130.503L309.826 131.831L306.669 131.117C305.745 130.908 305.087 130.921 304.697 131.157C304.307 131.392 304.062 131.728 303.963 132.165C303.85 132.665 303.958 133.114 304.286 133.512C304.617 133.897 305.135 134.17 305.841 134.329C306.534 134.486 307.172 134.468 307.755 134.276C308.351 134.087 308.831 133.724 309.195 133.186L309.274 134.539C308.894 135.087 308.355 135.471 307.658 135.691C306.963 135.898 306.148 135.896 305.211 135.684Z" fill="#1E1E1E"/>
<path d="M297.005 122.882C297.826 123.068 298.515 123.392 299.071 123.855C299.628 124.318 300.005 124.916 300.203 125.649C300.415 126.384 300.407 127.253 300.181 128.254L298.853 134.125L297.005 133.707L298.285 128.048C298.509 127.06 298.446 126.263 298.097 125.658C297.748 125.053 297.157 124.656 296.323 124.468C295.707 124.328 295.139 124.335 294.619 124.487C294.099 124.639 293.654 124.937 293.284 125.379C292.927 125.824 292.664 126.419 292.496 127.164L291.308 132.419L289.46 132.001L290.739 126.341C290.963 125.353 290.9 124.557 290.551 123.952C290.215 123.35 289.624 122.953 288.777 122.761C288.174 122.625 287.612 122.633 287.092 122.785C286.572 122.937 286.127 123.235 285.757 123.677C285.387 124.12 285.118 124.713 284.95 125.457L283.762 130.712L281.914 130.295L284.221 120.092L285.992 120.493L285.378 123.207L285.246 122.449C285.718 121.854 286.329 121.446 287.081 121.225C287.832 121.003 288.651 120.993 289.536 121.193C290.511 121.414 291.297 121.848 291.892 122.495C292.491 123.129 292.789 123.959 292.786 124.983L292.105 124.506C292.59 123.792 293.272 123.285 294.149 122.985C295.026 122.684 295.978 122.65 297.005 122.882Z" fill="#1E1E1E"/>
<path d="M269.475 127.603C268.384 127.357 267.472 126.914 266.739 126.277C266.02 125.642 265.517 124.881 265.232 123.993C264.96 123.109 264.939 122.16 265.168 121.146C265.397 120.132 265.819 119.283 266.432 118.599C267.058 117.918 267.805 117.446 268.674 117.184C269.558 116.912 270.488 116.886 271.464 117.107C272.452 117.33 273.275 117.745 273.933 118.353C274.592 118.961 275.043 119.71 275.287 120.601C275.546 121.483 275.557 122.45 275.319 123.502C275.301 123.579 275.274 123.667 275.238 123.767C275.215 123.87 275.187 123.965 275.154 124.052L266.472 122.089L266.773 120.76L274.492 122.506L273.637 122.798C273.797 122.146 273.795 121.532 273.628 120.955C273.462 120.378 273.161 119.891 272.724 119.496C272.303 119.09 271.765 118.814 271.111 118.666C270.469 118.521 269.865 118.539 269.298 118.721C268.733 118.89 268.251 119.206 267.849 119.668C267.451 120.118 267.176 120.676 267.025 121.343L266.956 121.651C266.802 122.332 266.818 122.976 267.004 123.585C267.206 124.183 267.556 124.694 268.054 125.117C268.552 125.54 269.166 125.834 269.898 125.999C270.501 126.136 271.07 126.156 271.604 126.061C272.151 125.969 272.657 125.76 273.122 125.433L273.872 126.857C273.288 127.292 272.618 127.572 271.861 127.698C271.117 127.826 270.321 127.795 269.475 127.603Z" fill="#1E1E1E"/>
<path d="M256.026 124.562C255.038 124.339 254.202 123.92 253.518 123.307C252.846 122.697 252.375 121.949 252.102 121.065C251.83 120.18 251.812 119.219 252.047 118.179C252.282 117.14 252.711 116.286 253.334 115.617C253.96 114.936 254.708 114.464 255.576 114.202C256.458 113.943 257.393 113.925 258.381 114.148C259.241 114.343 259.974 114.711 260.58 115.252C261.185 115.794 261.607 116.496 261.843 117.359C262.093 118.225 262.087 119.235 261.826 120.39C261.564 121.545 261.141 122.461 260.557 123.138C259.985 123.818 259.307 124.279 258.524 124.52C257.744 124.748 256.912 124.762 256.026 124.562ZM256.546 122.98C257.187 123.125 257.798 123.108 258.378 122.929C258.971 122.753 259.476 122.429 259.893 121.956C260.326 121.474 260.624 120.874 260.786 120.155C260.951 119.424 260.94 118.76 260.751 118.164C260.577 117.559 260.261 117.049 259.802 116.634C259.355 116.223 258.811 115.945 258.169 115.8C257.515 115.652 256.898 115.668 256.317 115.847C255.737 116.026 255.232 116.35 254.803 116.819C254.376 117.276 254.079 117.87 253.914 118.601C253.752 119.32 253.762 119.99 253.945 120.611C254.131 121.22 254.448 121.73 254.894 122.141C255.341 122.552 255.891 122.832 256.546 122.98ZM259.69 125.269L260.313 122.517L260.964 120.175L261.307 117.764L262.843 110.969L264.691 111.387L261.461 125.67L259.69 125.269Z" fill="#1E1E1E"/>
<path d="M238.792 120.665C237.765 120.433 236.905 120.002 236.211 119.373C235.517 118.744 235.027 117.986 234.742 117.099C234.46 116.199 234.432 115.248 234.658 114.247C234.888 113.233 235.322 112.387 235.961 111.709C236.6 111.031 237.366 110.563 238.261 110.307C239.158 110.038 240.12 110.019 241.146 110.251C242.16 110.48 243.014 110.91 243.708 111.539C244.418 112.158 244.909 112.909 245.181 113.794C245.469 114.668 245.497 115.619 245.265 116.645C245.036 117.659 244.601 118.505 243.962 119.184C243.336 119.865 242.568 120.339 241.658 120.605C240.761 120.874 239.805 120.894 238.792 120.665ZM239.157 119.048C239.812 119.196 240.429 119.181 241.009 119.001C241.602 118.825 242.107 118.501 242.524 118.029C242.944 117.544 243.235 116.942 243.398 116.223C243.563 115.492 243.558 114.83 243.381 114.237C243.208 113.631 242.892 113.121 242.432 112.707C241.986 112.296 241.435 112.016 240.781 111.868C240.126 111.72 239.509 111.736 238.929 111.915C238.349 112.094 237.844 112.418 237.414 112.887C236.987 113.344 236.691 113.938 236.526 114.669C236.363 115.388 236.373 116.058 236.557 116.68C236.743 117.288 237.059 117.798 237.506 118.209C237.952 118.621 238.503 118.9 239.157 119.048Z" fill="#1E1E1E"/>
<path d="M229.122 107.532C229.956 107.721 230.651 108.047 231.208 108.51C231.777 108.976 232.167 109.576 232.378 110.312C232.59 111.048 232.582 111.916 232.356 112.917L231.028 118.788L229.18 118.37L230.46 112.711C230.683 111.723 230.608 110.924 230.233 110.313C229.872 109.705 229.255 109.302 228.382 109.105C227.727 108.957 227.127 108.956 226.582 109.103C226.036 109.249 225.572 109.542 225.189 109.982C224.819 110.424 224.55 111.017 224.382 111.762L223.194 117.017L221.346 116.599L223.653 106.397L225.424 106.797L224.801 109.55L224.678 108.753C225.162 108.161 225.793 107.758 226.57 107.542C227.347 107.327 228.198 107.323 229.122 107.532ZM230.199 106.258C229.891 106.189 229.63 106.062 229.415 105.879C229.213 105.698 229.035 105.503 228.88 105.292C228.728 105.069 228.577 104.873 228.426 104.704C228.275 104.535 228.11 104.43 227.931 104.39C227.648 104.326 227.393 104.383 227.164 104.56C226.95 104.728 226.789 104.995 226.679 105.361L225.64 105.126C225.828 104.413 226.137 103.883 226.566 103.535C226.995 103.187 227.492 103.077 228.057 103.204C228.365 103.274 228.625 103.407 228.837 103.603C229.052 103.787 229.235 103.99 229.387 104.213C229.542 104.424 229.688 104.612 229.826 104.778C229.976 104.947 230.142 105.052 230.321 105.092C230.604 105.156 230.858 105.106 231.084 104.941C231.31 104.776 231.47 104.516 231.564 104.159L232.604 104.394C232.437 105.071 232.133 105.583 231.69 105.928C231.261 106.276 230.764 106.386 230.199 106.258Z" fill="#1E1E1E"/>
<path d="M214.076 115.077C212.985 114.83 212.074 114.388 211.341 113.75C210.621 113.115 210.119 112.354 209.834 111.467C209.562 110.583 209.54 109.634 209.769 108.62C209.999 107.606 210.42 106.757 211.033 106.073C211.659 105.392 212.407 104.92 213.276 104.658C214.16 104.385 215.09 104.36 216.065 104.58C217.053 104.804 217.877 105.219 218.535 105.827C219.193 106.434 219.645 107.184 219.888 108.075C220.147 108.956 220.158 109.923 219.92 110.976C219.903 111.053 219.876 111.141 219.84 111.241C219.817 111.343 219.789 111.438 219.755 111.525L211.074 109.562L211.374 108.234L219.093 109.979L218.238 110.272C218.399 109.62 218.396 109.006 218.23 108.428C218.064 107.851 217.762 107.365 217.326 106.97C216.905 106.564 216.367 106.287 215.712 106.139C215.071 105.994 214.466 106.013 213.899 106.195C213.335 106.364 212.852 106.68 212.451 107.142C212.052 107.591 211.778 108.15 211.627 108.817L211.557 109.125C211.403 109.805 211.42 110.45 211.606 111.058C211.807 111.657 212.157 112.168 212.655 112.591C213.153 113.013 213.768 113.308 214.499 113.473C215.103 113.609 215.671 113.63 216.205 113.535C216.752 113.443 217.258 113.233 217.723 112.907L218.473 114.331C217.89 114.766 217.219 115.046 216.462 115.171C215.718 115.3 214.923 115.268 214.076 115.077Z" fill="#1E1E1E"/>
<path d="M202.815 112.53C201.969 112.339 201.186 112.04 200.468 111.635C199.763 111.233 199.231 110.816 198.87 110.384L199.971 109.095C200.34 109.489 200.822 109.861 201.418 110.211C202.013 110.561 202.644 110.812 203.312 110.963C204.171 111.157 204.815 111.175 205.242 111.015C205.682 110.858 205.952 110.562 206.05 110.126C206.123 109.805 206.064 109.528 205.874 109.296C205.683 109.065 205.406 108.86 205.041 108.683C204.689 108.509 204.29 108.338 203.842 108.169C203.397 107.988 202.956 107.794 202.517 107.586C202.081 107.367 201.692 107.117 201.351 106.837C201.012 106.545 200.767 106.199 200.614 105.801C200.464 105.389 200.456 104.888 200.59 104.298C200.729 103.682 201.024 103.182 201.475 102.798C201.926 102.415 202.494 102.172 203.178 102.07C203.877 101.959 204.663 102.002 205.536 102.199C206.203 102.35 206.858 102.586 207.501 102.906C208.159 103.217 208.673 103.569 209.042 103.963L207.922 105.248C207.53 104.835 207.097 104.515 206.622 104.286C206.148 104.057 205.66 103.886 205.16 103.773C204.351 103.59 203.718 103.589 203.259 103.768C202.803 103.935 202.529 104.224 202.436 104.634C202.358 104.981 202.412 105.276 202.6 105.521C202.803 105.756 203.079 105.967 203.428 106.153C203.79 106.343 204.193 106.529 204.637 106.71C205.085 106.879 205.526 107.073 205.962 107.293C206.401 107.5 206.785 107.742 207.113 108.019C207.455 108.298 207.702 108.637 207.855 109.036C208.02 109.438 208.038 109.927 207.907 110.505C207.768 111.121 207.468 111.613 207.007 111.981C206.546 112.349 205.959 112.587 205.247 112.696C204.537 112.791 203.727 112.736 202.815 112.53Z" fill="#1E1E1E"/>
<path d="M194.539 110.537L196.846 100.335L198.694 100.753L196.387 110.955L194.539 110.537ZM198.214 98.5807C197.855 98.4995 197.579 98.3158 197.388 98.0296C197.209 97.7464 197.157 97.438 197.233 97.1043C197.311 96.7578 197.492 96.4952 197.775 96.3164C198.071 96.1406 198.399 96.0933 198.758 96.1745C199.118 96.2558 199.387 96.438 199.565 96.7212C199.76 96.9945 199.82 97.298 199.744 97.6317C199.666 97.9782 199.483 98.2472 199.197 98.4388C198.914 98.6176 198.586 98.6649 198.214 98.5807Z" fill="#1E1E1E"/>
<path d="M178.906 107.002L181.952 93.5278L187.631 94.8119C189.068 95.1369 190.268 95.705 191.232 96.5163C192.208 97.3305 192.882 98.3127 193.256 99.4629C193.643 100.616 193.686 101.86 193.384 103.194C193.082 104.529 192.509 105.634 191.663 106.508C190.831 107.386 189.799 107.982 188.568 108.297C187.349 108.615 186.021 108.611 184.584 108.286L178.906 107.002ZM181.209 105.763L184.847 106.586C185.964 106.838 186.974 106.844 187.878 106.603C188.795 106.366 189.564 105.919 190.184 105.263C190.808 104.595 191.233 103.76 191.459 102.759C191.688 101.745 191.664 100.809 191.386 99.9504C191.108 99.0917 190.606 98.3578 189.881 97.7486C189.168 97.1423 188.253 96.7129 187.137 96.4605L183.499 95.6378L181.209 105.763Z" fill="#1E1E1E"/>
<path d="M86.8412 21.3057C87.0254 20.4063 88.1312 20.0664 88.7887 20.7072L114.411 45.6752C114.767 46.0223 115.305 46.1039 115.748 45.8781L147.624 29.6367C148.442 29.2199 149.397 29.8726 149.306 30.7861L145.76 66.3854C145.711 66.8803 145.983 67.3517 146.436 67.5574L179.008 82.3529C179.844 82.7325 179.929 83.8863 179.158 84.3848L149.115 103.808C148.697 104.078 148.498 104.585 148.619 105.067L157.361 139.758C157.585 140.648 156.736 141.434 155.866 141.142L121.948 129.764C121.476 129.605 120.956 129.765 120.655 130.161L98.9824 158.625C98.4263 159.355 97.2825 159.181 96.9681 158.319L84.7168 124.707C84.5465 124.239 84.0974 123.932 83.6001 123.944L47.8337 124.746C46.9159 124.767 46.3384 123.764 46.8168 122.981L65.4574 92.4452C65.7166 92.0207 65.6765 91.4782 65.3577 91.0963L42.4303 63.6334C41.842 62.9286 42.2658 61.8521 43.1766 61.7375L78.6723 57.2729C79.1659 57.2108 79.565 56.8412 79.6648 56.3539L86.8412 21.3057Z" fill="#D5FFB5"/>
<path d="M145.05 94.9821L141.254 82.6313L142.852 82.1402L146.648 94.491L145.05 94.9821Z" fill="#1E1E1E"/>
<path d="M140.578 96.3566L140.005 94.4923L139.814 94.1684L138.837 90.9891C138.629 90.3122 138.269 89.8521 137.757 89.6086C137.253 89.3507 136.607 89.3428 135.819 89.585C135.297 89.7453 134.814 89.9909 134.369 90.322C133.921 90.6419 133.569 90.999 133.314 91.3932L132.28 90.3994C132.622 89.8934 133.081 89.4488 133.655 89.0658C134.237 88.6682 134.878 88.362 135.577 88.1472C136.787 87.7754 137.809 87.783 138.645 88.1699C139.48 88.5568 140.084 89.3551 140.456 90.5646L142.093 95.8911L140.578 96.3566ZM137.712 97.3466C137.058 97.5478 136.446 97.6142 135.879 97.5457C135.322 97.4739 134.851 97.2847 134.466 96.9781C134.077 96.6605 133.805 96.252 133.652 95.7526C133.505 95.2755 133.483 94.8086 133.586 94.352C133.699 93.892 133.976 93.467 134.414 93.0771C134.864 92.6838 135.528 92.3524 136.404 92.083L139.201 91.2235L139.554 92.3721L136.824 93.211C136.025 93.4566 135.528 93.7552 135.332 94.1068C135.136 94.4583 135.097 94.8228 135.213 95.2001C135.346 95.6328 135.625 95.9295 136.051 96.0901C136.473 96.2396 136.99 96.2206 137.6 96.033C138.199 95.8488 138.68 95.5554 139.042 95.1526C139.415 94.7465 139.623 94.2575 139.666 93.6857L140.32 94.687C140.269 95.2734 140.025 95.8038 139.588 96.2782C139.148 96.7415 138.522 97.0976 137.712 97.3466Z" fill="#1E1E1E"/>
<path d="M130.453 99.4685L127.741 90.6466L129.339 90.1555L132.051 98.9774L130.453 99.4685ZM128.018 88.7032C127.708 88.7987 127.416 88.779 127.144 88.644C126.883 88.5057 126.708 88.2922 126.619 88.0037C126.527 87.7041 126.55 87.4237 126.689 87.1626C126.838 86.8981 127.068 86.718 127.379 86.6226C127.69 86.5271 127.976 86.5485 128.237 86.6868C128.506 86.8107 128.684 87.0169 128.773 87.3054C128.865 87.605 128.844 87.8909 128.709 88.1632C128.57 88.4243 128.34 88.6043 128.018 88.7032Z" fill="#1E1E1E"/>
<path d="M123.739 101.532L121.028 92.7097L122.559 92.239L123.296 94.636L122.962 94.0828C123.019 93.3974 123.286 92.8052 123.764 92.306C124.242 91.8069 124.903 91.4277 125.746 91.1685L126.222 92.7165C126.152 92.7258 126.084 92.7408 126.017 92.7612C125.962 92.7783 125.906 92.7953 125.851 92.8124C124.996 93.075 124.398 93.5383 124.055 94.2022C123.713 94.8661 123.69 95.6808 123.987 96.6462L125.337 101.041L123.739 101.532Z" fill="#1E1E1E"/>
<path d="M116.983 103.718C116.095 103.99 115.247 104.038 114.44 103.861C113.633 103.685 112.925 103.319 112.318 102.765C111.707 102.2 111.268 101.484 111.002 100.619C110.733 99.7421 110.694 98.9039 110.885 98.1042C111.077 97.3045 111.458 96.6103 112.03 96.0216C112.599 95.4217 113.327 94.9854 114.215 94.7126C115.092 94.4431 115.934 94.3969 116.741 94.5738C117.556 94.7363 118.262 95.0962 118.858 95.6538C119.462 96.1968 119.901 96.9122 120.174 97.7999C120.443 98.6766 120.482 99.5148 120.291 100.314C120.11 101.111 119.73 101.81 119.151 102.414C118.582 103.014 117.859 103.448 116.983 103.718ZM116.553 102.319C117.119 102.145 117.584 101.863 117.95 101.471C118.326 101.076 118.571 100.606 118.683 100.062C118.791 99.5061 118.75 98.9176 118.559 98.2962C118.365 97.6637 118.07 97.1591 117.675 96.7826C117.276 96.395 116.81 96.1435 116.277 96.0281C115.755 95.9093 115.211 95.9368 114.645 96.1108C114.079 96.2847 113.613 96.5675 113.248 96.9591C112.882 97.3508 112.638 97.8206 112.515 98.3685C112.388 98.9053 112.422 99.49 112.617 100.122C112.808 100.744 113.11 101.252 113.523 101.648C113.932 102.032 114.398 102.283 114.921 102.402C115.443 102.521 115.987 102.493 116.553 102.319Z" fill="#1E1E1E"/>
<path d="M109.634 105.976C108.746 106.249 107.985 106.222 107.35 105.895C106.715 105.568 106.261 104.96 105.988 104.073L103.502 95.9829L105.1 95.4918L107.566 103.515C107.713 103.992 107.942 104.322 108.253 104.506C108.576 104.686 108.959 104.708 109.403 104.572C109.902 104.418 110.276 104.152 110.523 103.772L111.376 104.767C111.196 105.053 110.95 105.298 110.637 105.504C110.334 105.706 110 105.864 109.634 105.976ZM103.002 99.6892L102.598 98.3742L108.224 96.6451L108.628 97.9601L103.002 99.6892Z" fill="#1E1E1E"/>
<path d="M101.925 108.236L99.2136 99.4141L100.812 98.923L103.523 107.745L101.925 108.236ZM99.4908 97.4708C99.1801 97.5663 98.8886 97.5466 98.6164 97.4116C98.3553 97.2733 98.1804 97.0598 98.0917 96.7713C97.9996 96.4717 98.0228 96.1913 98.1611 95.9302C98.3106 95.6656 98.5406 95.4856 98.8513 95.3901C99.1621 95.2946 99.448 95.3161 99.7091 95.4544C99.9779 95.5783 100.157 95.7845 100.245 96.073C100.337 96.3726 100.316 96.6585 100.181 96.9307C100.043 97.1919 99.8126 97.3719 99.4908 97.4708Z" fill="#1E1E1E"/>
<path d="M94.2549 110.703C93.4004 110.965 92.5768 111.012 91.7839 110.843C91.0022 110.67 90.3131 110.305 89.7166 109.747C89.1202 109.19 88.6839 108.462 88.4076 107.563C88.1314 106.664 88.0851 105.822 88.2689 105.037C88.4492 104.241 88.8143 103.551 89.3642 102.969C89.9251 102.384 90.6328 101.96 91.4873 101.698C92.2308 101.469 92.9533 101.429 93.6548 101.578C94.3564 101.727 94.987 102.079 95.5467 102.636C96.1175 103.189 96.5564 103.965 96.8634 104.964C97.1703 105.963 97.2486 106.85 97.0981 107.625C96.9587 108.396 96.6423 109.046 96.1488 109.574C95.6519 110.091 95.0206 110.467 94.2549 110.703ZM93.9583 109.264C94.5132 109.093 94.9733 108.812 95.3387 108.42C95.7153 108.025 95.9595 107.555 96.0715 107.011C96.1912 106.452 96.1555 105.862 95.9645 105.24C95.7701 104.608 95.4699 104.105 95.0637 103.732C94.6652 103.344 94.1993 103.093 93.6659 102.977C93.1436 102.858 92.605 102.884 92.0502 103.055C91.4842 103.229 91.0185 103.512 90.6531 103.903C90.2877 104.295 90.0434 104.765 89.9203 105.313C89.7938 105.849 89.8278 106.434 90.0222 107.067C90.2132 107.688 90.5152 108.196 90.9281 108.592C91.3377 108.976 91.8036 109.227 92.326 109.346C92.8483 109.465 93.3924 109.437 93.9583 109.264ZM97.3701 109.636L96.6386 107.256L96.1092 105.178L95.3135 103.181L93.5077 97.3056L95.1056 96.8145L98.9015 109.165L97.3701 109.636Z" fill="#1E1E1E"/>
<path d="M84.346 113.748C83.4027 114.038 82.5108 114.1 81.6701 113.933C80.8406 113.763 80.122 113.401 79.5145 112.847C78.9181 112.289 78.4851 111.572 78.2157 110.695C77.9463 109.819 77.8962 108.984 78.0655 108.191C78.2458 107.395 78.6109 106.706 79.1608 106.124C79.7183 105.527 80.4187 105.1 81.2621 104.84C82.1166 104.578 82.9291 104.535 83.6998 104.711C84.4704 104.887 85.1446 105.262 85.7222 105.838C86.3076 106.399 86.7401 107.134 87.0197 108.044C87.0402 108.111 87.0585 108.19 87.0747 108.282C87.102 108.371 87.122 108.456 87.1348 108.537L79.6278 110.844L79.2748 109.696L85.9496 107.644L85.4232 108.243C85.2603 107.674 84.9886 107.205 84.6081 106.836C84.2275 106.467 83.7834 106.227 83.2756 106.116C82.7754 105.991 82.2424 106.015 81.6765 106.189C81.1216 106.359 80.667 106.639 80.3127 107.027C79.955 107.404 79.7239 107.857 79.6196 108.387C79.5119 108.906 79.5468 109.454 79.7241 110.031L79.8059 110.298C79.9867 110.886 80.2819 111.372 80.6914 111.756C81.1087 112.126 81.6007 112.363 82.1674 112.469C82.7341 112.574 83.3337 112.529 83.9662 112.335C84.4877 112.174 84.9321 111.941 85.2992 111.634C85.6774 111.323 85.9728 110.941 86.1855 110.487L87.3849 111.248C87.1286 111.836 86.7384 112.345 86.2142 112.773C85.7011 113.198 85.0784 113.523 84.346 113.748Z" fill="#1E1E1E"/>
<path d="M131.561 77.3763C130.673 77.6492 129.826 77.6971 129.018 77.5202C128.211 77.3432 127.503 76.9777 126.896 76.4236C126.285 75.8583 125.846 75.143 125.58 74.2774C125.311 73.4008 125.272 72.5626 125.463 71.7629C125.655 70.9632 126.037 70.269 126.609 69.6803C127.177 69.0804 127.905 68.6441 128.793 68.3713C129.67 68.1018 130.512 68.0556 131.319 68.2325C132.134 68.395 132.84 68.7549 133.436 69.3125C134.041 69.8555 134.479 70.5709 134.752 71.4586C135.021 72.3353 135.06 73.1735 134.869 73.9731C134.689 74.7694 134.309 75.4692 133.729 76.0724C133.16 76.6723 132.437 77.1069 131.561 77.3763ZM131.131 75.9781C131.697 75.8042 132.163 75.5214 132.528 75.1297C132.905 74.7347 133.149 74.2649 133.261 73.7204C133.37 73.1648 133.328 72.5763 133.137 71.9549C132.943 71.3223 132.648 70.8178 132.253 70.4413C131.855 70.0537 131.389 69.8022 130.855 69.6868C130.333 69.568 129.789 69.5955 129.223 69.7695C128.657 69.9434 128.191 70.2262 127.826 70.6178C127.46 71.0095 127.216 71.4793 127.093 72.0272C126.967 72.564 127.001 73.1487 127.195 73.7812C127.386 74.4026 127.688 74.911 128.101 75.3063C128.51 75.6905 128.976 75.942 129.499 76.0608C130.021 76.1796 130.565 76.1521 131.131 75.9781Z" fill="#1E1E1E"/>
<path d="M118.396 71.5669C119.117 71.3452 119.792 71.2896 120.421 71.3999C121.061 71.5068 121.624 71.7954 122.108 72.2659C122.593 72.7363 122.968 73.4043 123.234 74.2699L124.794 79.3466L123.197 79.8378L121.692 74.9441C121.43 74.0896 121.021 73.5108 120.467 73.2076C119.923 72.901 119.274 72.8637 118.519 73.0956C117.953 73.2695 117.494 73.5323 117.14 73.8838C116.787 74.2353 116.56 74.6633 116.46 75.1677C116.371 75.6687 116.425 76.241 116.623 76.8846L118.02 81.4287L116.422 81.9199L113.711 73.0979L115.242 72.6273L115.973 75.0075L115.529 74.4517C115.641 73.786 115.946 73.2002 116.447 72.6942C116.947 72.1882 117.597 71.8125 118.396 71.5669ZM118.661 70.119C118.395 70.2009 118.139 70.2187 117.894 70.1725C117.66 70.123 117.438 70.0516 117.227 69.9585C117.013 69.8543 116.811 69.7706 116.622 69.7074C116.432 69.6442 116.26 69.6364 116.104 69.6842C115.86 69.7592 115.69 69.9149 115.592 70.1513C115.503 70.3732 115.496 70.6485 115.573 70.9771L114.674 71.2533C114.505 70.6251 114.509 70.0835 114.685 69.6287C114.861 69.1738 115.193 68.8713 115.681 68.7213C115.947 68.6394 116.205 68.6271 116.453 68.6844C116.698 68.7306 116.928 68.8058 117.142 68.91C117.353 69.0031 117.547 69.0829 117.725 69.1495C117.915 69.2128 118.087 69.2205 118.243 69.1728C118.487 69.0977 118.659 68.9476 118.76 68.7223C118.861 68.497 118.869 68.2273 118.785 67.9131L119.684 67.6369C119.853 68.2284 119.844 68.7533 119.657 69.2116C119.481 69.6665 119.149 69.969 118.661 70.119Z" fill="#1E1E1E"/>
<path d="M110.189 83.9445C109.246 84.2344 108.354 84.296 107.513 84.1293C106.684 83.9592 105.965 83.5971 105.357 83.0429C104.761 82.4854 104.328 81.7683 104.059 80.8917C103.789 80.015 103.739 79.1803 103.908 78.3874C104.089 77.5911 104.454 76.902 105.004 76.3201C105.561 75.7237 106.262 75.2959 107.105 75.0367C107.96 74.7741 108.772 74.7308 109.543 74.9069C110.313 75.0829 110.988 75.4587 111.565 76.0342C112.151 76.5951 112.583 77.3306 112.863 78.2405C112.883 78.3071 112.901 78.3865 112.918 78.4786C112.945 78.5674 112.965 78.6523 112.978 78.7334L105.471 81.0406L105.118 79.8921L111.793 77.8407L111.266 78.4397C111.103 77.8704 110.832 77.4013 110.451 77.0324C110.07 76.6636 109.626 76.4236 109.119 76.3125C108.618 76.1868 108.085 76.211 107.519 76.3849C106.965 76.5555 106.51 76.8348 106.156 77.2231C105.798 77.6002 105.567 78.0538 105.463 78.5838C105.355 79.1027 105.39 79.6507 105.567 80.2277L105.649 80.494C105.83 81.0821 106.125 81.5683 106.534 81.9525C106.952 82.3222 107.444 82.5597 108.01 82.6648C108.577 82.77 109.177 82.7254 109.809 82.531C110.331 82.3707 110.775 82.137 111.142 81.8298C111.52 81.5193 111.816 81.137 112.028 80.683L113.228 81.4439C112.972 82.0327 112.581 82.5413 112.057 82.9696C111.544 83.3945 110.921 83.7194 110.189 83.9445Z" fill="#1E1E1E"/>
<path d="M100.452 86.9374C99.7195 87.1625 98.9897 87.2775 98.2625 87.2824C97.5464 87.2839 96.9553 87.1983 96.4894 87.0258L96.7664 85.5561C97.2221 85.6954 97.7547 85.7685 98.3641 85.7756C98.9735 85.7826 99.5667 85.6974 100.144 85.5201C100.887 85.2916 101.387 85.0225 101.645 84.7127C101.913 84.3996 101.989 84.0543 101.873 83.677C101.787 83.3996 101.621 83.2139 101.374 83.12C101.126 83.026 100.824 82.9913 100.467 83.016C100.122 83.0372 99.7404 83.0815 99.3239 83.1488C98.9039 83.2049 98.4806 83.25 98.0538 83.2841C97.6236 83.307 97.2165 83.2863 96.8324 83.2222C96.445 83.147 96.1053 82.9902 95.8135 82.752C95.5183 82.5027 95.2922 82.1228 95.1353 81.6124C94.9716 81.0797 94.9782 80.5676 95.155 80.076C95.3318 79.5845 95.6597 79.1497 96.1387 78.7718C96.6253 78.3793 97.2459 78.0671 98.0005 77.8352C98.5775 77.6578 99.1823 77.5509 99.8148 77.5144C100.455 77.4634 101.003 77.5076 101.459 77.6468L101.165 79.1216C100.684 78.9781 100.211 78.9229 99.7477 78.956C99.2842 78.9891 98.8361 79.0722 98.4033 79.2052C97.7042 79.4201 97.2185 79.6969 96.9461 80.0356C96.6703 80.3633 96.587 80.7047 96.6961 81.0598C96.7882 81.3594 96.9597 81.5617 97.2106 81.6668C97.4692 81.7574 97.773 81.7976 98.1221 81.7874C98.4823 81.7739 98.8724 81.739 99.2923 81.6828C99.7089 81.6155 100.132 81.5704 100.562 81.5475C100.989 81.5135 101.389 81.5303 101.762 81.5978C102.146 81.662 102.484 81.8132 102.776 82.0514C103.079 82.2862 103.307 82.6533 103.46 83.1526C103.624 83.6853 103.61 84.1936 103.419 84.6774C103.228 85.1613 102.883 85.6012 102.385 85.9971C101.884 86.3818 101.24 86.6953 100.452 86.9374Z" fill="#1E1E1E"/>
<path d="M93.2421 89.0437L90.5308 80.2218L92.1287 79.7307L94.8401 88.5526L93.2421 89.0437ZM90.808 78.2784C90.4972 78.3739 90.2058 78.3542 89.9335 78.2192C89.6724 78.0809 89.4975 77.8674 89.4088 77.5789C89.3168 77.2793 89.3399 76.9989 89.4782 76.7378C89.6277 76.4733 89.8578 76.2932 90.1685 76.1978C90.4792 76.1023 90.7651 76.1237 91.0262 76.262C91.2951 76.3859 91.4738 76.5921 91.5625 76.8806C91.6546 77.1802 91.6331 77.4661 91.4982 77.7383C91.3598 77.9995 91.1298 78.1795 90.808 78.2784Z" fill="#1E1E1E"/>
<path d="M79.7234 93.1985L76.1424 81.5469L81.0527 80.0377C82.2956 79.6558 83.4636 79.564 84.5569 79.7623C85.6613 79.9573 86.609 80.4129 87.4 81.1293C88.202 81.8422 88.7804 82.7757 89.1351 83.9298C89.4898 85.0839 89.5356 86.1811 89.2723 87.2214C89.0202 88.2584 88.492 89.1676 87.6878 89.9492C86.8946 90.7273 85.8766 91.3074 84.6337 91.6894L79.7234 93.1985ZM80.9429 91.2388L84.0888 90.2719C85.0542 89.9752 85.8302 89.5363 86.4168 88.9553C87.0144 88.3708 87.4068 87.6915 87.594 86.9175C87.7778 86.1323 87.7366 85.3069 87.4706 84.4414C87.2012 83.5647 86.7717 82.8587 86.182 82.3234C85.5924 81.788 84.8863 81.4464 84.0635 81.2985C83.2519 81.1472 82.3633 81.2198 81.3979 81.5166L78.252 82.4834L80.9429 91.2388Z" fill="#1E1E1E"/>
<path d="M57.9969 190.925C55.0933 176.794 64.1947 162.985 78.3253 160.081L226.155 129.705C240.285 126.802 254.094 135.903 256.998 150.034C259.901 164.164 250.8 177.973 236.669 180.877L88.8402 211.253C74.7095 214.157 60.9005 205.055 57.9969 190.925Z" fill="#FDFF85"/>
<path d="M219.691 165.403L216.911 151.871L218.844 151.473L221.625 165.005L219.691 165.403Z" fill="#1E1E1E"/>
<path d="M210.038 167.548C208.259 167.913 206.756 167.691 205.529 166.882C204.302 166.073 203.487 164.689 203.084 162.731L201.503 155.037L203.436 154.639L205.001 162.256C205.311 163.764 205.866 164.798 206.667 165.359C207.48 165.917 208.492 166.072 209.704 165.823C210.928 165.571 211.797 165.03 212.311 164.199C212.839 163.366 212.947 162.195 212.637 160.687L211.072 153.07L212.947 152.685L214.528 160.379C214.931 162.338 214.728 163.931 213.919 165.158C213.123 166.383 211.829 167.179 210.038 167.548Z" fill="#1E1E1E"/>
<path d="M195.43 172.403L198.067 152.882L199.749 152.536L197.112 172.057L195.43 172.403Z" fill="#1E1E1E"/>
<path d="M182.497 173.046L186.545 164.215L186.851 165.704L180.026 159.45L182.229 158.997L187.631 163.911L186.765 164.11L189.769 157.448L191.876 157.015L188.084 165.33L187.798 163.938L195.004 170.476L192.781 170.932L187.029 165.687L187.88 165.513L184.72 172.589L182.497 173.046Z" fill="#1E1E1E"/>
<path d="M174.811 174.786C173.032 175.152 171.529 174.93 170.302 174.121C169.074 173.312 168.26 171.928 167.857 169.969L166.276 162.275L168.209 161.878L169.774 169.495C170.084 171.003 170.639 172.037 171.439 172.598C172.253 173.156 173.265 173.311 174.476 173.062C175.701 172.81 176.57 172.269 177.084 171.438C177.611 170.604 177.72 169.434 177.41 167.926L175.845 160.309L177.72 159.924L179.301 167.618C179.704 169.577 179.501 171.17 178.692 172.397C177.896 173.622 176.602 174.418 174.811 174.786Z" fill="#1E1E1E"/>
<path d="M155.852 178.642C154.821 178.854 153.859 178.816 152.967 178.529C152.076 178.242 151.317 177.754 150.692 177.063C150.063 176.359 149.646 175.505 149.44 174.499C149.23 173.481 149.277 172.531 149.579 171.65C149.882 170.768 150.388 170.026 151.097 169.424C151.803 168.809 152.672 168.395 153.703 168.183C154.721 167.974 155.676 168.013 156.567 168.3C157.469 168.571 158.227 169.054 158.839 169.747C159.462 170.425 159.879 171.28 160.091 172.311C160.3 173.329 160.254 174.279 159.951 175.16C159.662 176.039 159.158 176.787 158.438 177.405C157.732 178.02 156.87 178.433 155.852 178.642ZM155.518 177.018C156.175 176.883 156.731 176.614 157.186 176.212C157.653 175.807 157.98 175.303 158.165 174.701C158.347 174.086 158.364 173.418 158.216 172.696C158.065 171.961 157.787 171.36 157.382 170.893C156.975 170.412 156.476 170.078 155.887 169.89C155.31 169.7 154.694 169.672 154.036 169.807C153.379 169.942 152.823 170.211 152.368 170.613C151.914 171.016 151.587 171.519 151.389 172.124C151.189 172.716 151.164 173.379 151.315 174.114C151.463 174.836 151.749 175.442 152.172 175.932C152.592 176.41 153.091 176.744 153.667 176.935C154.244 177.125 154.861 177.153 155.518 177.018Z" fill="#1E1E1E"/>
<path d="M141.627 170.665C142.465 170.492 143.232 170.503 143.93 170.695C144.641 170.885 145.244 171.271 145.74 171.854C146.236 172.438 146.587 173.232 146.793 174.237L148.005 180.133L146.149 180.514L144.981 174.831C144.777 173.839 144.379 173.141 143.786 172.739C143.206 172.335 142.478 172.223 141.601 172.403C140.944 172.538 140.397 172.784 139.96 173.143C139.523 173.501 139.221 173.959 139.054 174.518C138.899 175.073 138.899 175.725 139.053 176.472L140.137 181.75L138.281 182.131L136.176 171.885L137.954 171.52L138.522 174.284L138.082 173.609C138.279 172.87 138.687 172.242 139.306 171.726C139.925 171.209 140.699 170.855 141.627 170.665ZM142.083 169.06C141.774 169.123 141.483 169.116 141.212 169.037C140.953 168.956 140.71 168.852 140.483 168.724C140.252 168.583 140.034 168.467 139.827 168.375C139.62 168.283 139.426 168.256 139.246 168.293C138.962 168.351 138.753 168.508 138.617 168.765C138.492 169.005 138.455 169.315 138.506 169.694L137.462 169.909C137.34 169.182 137.402 168.571 137.65 168.077C137.898 167.583 138.305 167.277 138.872 167.161C139.181 167.097 139.473 167.111 139.747 167.203C140.018 167.281 140.269 167.391 140.5 167.532C140.727 167.659 140.938 167.771 141.132 167.865C141.339 167.957 141.533 167.984 141.713 167.947C141.997 167.889 142.208 167.738 142.346 167.495C142.484 167.251 142.522 166.948 142.461 166.585L143.505 166.37C143.632 167.056 143.566 167.647 143.305 168.144C143.057 168.638 142.65 168.943 142.083 169.06Z" fill="#1E1E1E"/>
<path d="M131.03 183.742C129.935 183.967 128.922 183.94 127.992 183.661C127.074 183.379 126.303 182.893 125.677 182.202C125.065 181.509 124.654 180.653 124.445 179.635C124.235 178.617 124.269 177.67 124.546 176.794C124.835 175.915 125.322 175.177 126.005 174.58C126.698 173.967 127.535 173.56 128.514 173.359C129.507 173.155 130.428 173.194 131.278 173.476C132.129 173.758 132.849 174.255 133.438 174.966C134.038 175.662 134.446 176.539 134.663 177.596C134.679 177.673 134.691 177.765 134.7 177.87C134.721 177.973 134.734 178.071 134.74 178.164L126.021 179.956L125.747 178.622L133.499 177.029L132.841 177.648C132.719 176.988 132.463 176.429 132.073 175.972C131.684 175.515 131.209 175.196 130.648 175.016C130.097 174.82 129.493 174.79 128.836 174.925C128.192 175.057 127.649 175.323 127.207 175.723C126.762 176.11 126.453 176.596 126.278 177.183C126.1 177.757 126.08 178.379 126.218 179.049L126.282 179.358C126.422 180.041 126.702 180.622 127.123 181.099C127.554 181.562 128.083 181.883 128.711 182.063C129.339 182.242 130.02 182.257 130.755 182.106C131.361 181.982 131.887 181.766 132.334 181.459C132.795 181.15 133.169 180.75 133.458 180.261L134.729 181.249C134.376 181.886 133.881 182.417 133.244 182.844C132.619 183.268 131.881 183.567 131.03 183.742Z" fill="#1E1E1E"/>
<path d="M119.722 186.065C118.871 186.24 118.036 186.291 117.215 186.218C116.407 186.142 115.749 185.982 115.242 185.737L115.714 184.109C116.213 184.315 116.806 184.455 117.492 184.529C118.179 184.603 118.857 184.571 119.528 184.433C120.391 184.256 120.985 184.006 121.308 183.685C121.644 183.36 121.767 182.979 121.677 182.541C121.611 182.219 121.444 181.991 121.175 181.858C120.905 181.726 120.568 181.654 120.163 181.643C119.771 181.63 119.336 181.638 118.859 181.669C118.379 181.687 117.897 181.692 117.411 181.685C116.924 181.664 116.467 181.597 116.04 181.483C115.611 181.356 115.245 181.143 114.942 180.842C114.635 180.529 114.421 180.076 114.3 179.483C114.173 178.865 114.235 178.288 114.488 177.752C114.741 177.217 115.157 176.762 115.739 176.387C116.33 175.997 117.064 175.712 117.94 175.532C118.61 175.394 119.304 175.339 120.022 175.366C120.749 175.378 121.363 175.487 121.862 175.693L121.371 177.325C120.844 177.111 120.317 176.998 119.79 176.985C119.264 176.972 118.749 177.018 118.247 177.121C117.435 177.288 116.857 177.547 116.513 177.9C116.166 178.24 116.036 178.616 116.12 179.029C116.192 179.377 116.363 179.623 116.635 179.769C116.917 179.899 117.255 179.977 117.65 180.004C118.058 180.027 118.502 180.03 118.982 180.012C119.459 179.981 119.942 179.976 120.429 179.997C120.914 180.004 121.364 180.067 121.777 180.183C122.204 180.297 122.569 180.504 122.872 180.804C123.188 181.102 123.406 181.541 123.525 182.121C123.652 182.739 123.582 183.311 123.314 183.837C123.046 184.362 122.609 184.821 122.005 185.214C121.398 185.593 120.637 185.877 119.722 186.065Z" fill="#1E1E1E"/>
<path d="M111.36 187.663L109.255 177.417L111.111 177.036L113.216 187.281L111.36 187.663ZM109.778 175.254C109.417 175.329 109.09 175.275 108.798 175.093C108.518 174.909 108.344 174.649 108.275 174.314C108.204 173.966 108.26 173.652 108.444 173.373C108.642 173.09 108.921 172.912 109.281 172.838C109.642 172.764 109.962 172.819 110.242 173.003C110.532 173.172 110.711 173.424 110.78 173.759C110.852 174.107 110.797 174.427 110.615 174.72C110.431 174.999 110.152 175.178 109.778 175.254Z" fill="#1E1E1E"/>
<path d="M95.66 190.889L92.8794 177.357L98.5822 176.185C100.026 175.889 101.353 175.911 102.565 176.253C103.79 176.592 104.81 177.209 105.625 178.103C106.453 178.994 107.004 180.109 107.28 181.45C107.555 182.79 107.488 184.033 107.079 185.178C106.682 186.321 105.988 187.289 104.996 188.084C104.017 188.876 102.806 189.421 101.363 189.717L95.66 190.889ZM97.2475 188.81L100.901 188.059C102.022 187.829 102.945 187.418 103.67 186.825C104.407 186.231 104.923 185.507 105.218 184.654C105.51 183.788 105.553 182.852 105.347 181.847C105.137 180.829 104.729 179.986 104.122 179.318C103.515 178.65 102.755 178.189 101.843 177.933C100.943 177.674 99.933 177.66 98.8118 177.891L95.1581 178.642L97.2475 188.81Z" fill="#1E1E1E"/>
<path d="M364.26 111.923C364.286 110.763 365.81 110.355 366.412 111.346L369.265 116.037C369.47 116.375 369.834 116.585 370.23 116.594L375.719 116.719C376.879 116.745 377.287 118.269 376.296 118.872L371.605 121.724C371.266 121.93 371.056 122.294 371.047 122.689L370.923 128.178C370.896 129.338 369.373 129.746 368.77 128.755L365.918 124.064C365.712 123.726 365.348 123.515 364.952 123.507L359.463 123.382C358.304 123.355 357.895 121.832 358.887 121.229L363.578 118.377C363.916 118.171 364.126 117.807 364.135 117.411L364.26 111.923Z" fill="white"/>
<path d="M197.415 203.949C197.442 202.789 198.965 202.381 199.568 203.372L201.051 205.812C201.257 206.151 201.621 206.361 202.017 206.37L204.872 206.435C206.032 206.461 206.44 207.984 205.449 208.587L203.009 210.071C202.67 210.277 202.46 210.641 202.451 211.036L202.386 213.891C202.36 215.051 200.836 215.459 200.234 214.468L198.75 212.028C198.544 211.69 198.18 211.48 197.785 211.471L194.93 211.406C193.77 211.379 193.362 209.856 194.353 209.253L196.793 207.77C197.131 207.564 197.341 207.2 197.35 206.804L197.415 203.949Z" fill="white"/>
<path d="M209.086 196.689C209.112 195.529 210.636 195.121 211.238 196.112L212.245 197.768C212.451 198.107 212.815 198.317 213.211 198.326L215.148 198.37C216.308 198.396 216.716 199.92 215.725 200.522L214.069 201.529C213.731 201.735 213.521 202.099 213.512 202.495L213.468 204.433C213.441 205.592 211.918 206.001 211.315 205.009L210.308 203.353C210.102 203.015 209.738 202.805 209.343 202.796L207.405 202.752C206.245 202.726 205.837 201.202 206.828 200.599L208.484 199.592C208.823 199.387 209.033 199.023 209.042 198.627L209.086 196.689Z" fill="white"/>
<path d="M331.85 261.678C331.958 260.617 333.321 260.252 333.945 261.116L337.141 265.54C337.335 265.809 337.635 265.981 337.964 266.015L343.393 266.571C344.454 266.68 344.819 268.042 343.955 268.667L339.531 271.863C339.263 272.057 339.09 272.356 339.056 272.686L338.5 278.114C338.391 279.176 337.029 279.541 336.404 278.676L333.208 274.252C333.014 273.984 332.715 273.811 332.386 273.777L326.957 273.221C325.895 273.113 325.53 271.75 326.395 271.126L330.819 267.93C331.087 267.736 331.26 267.436 331.294 267.107L331.85 261.678Z" fill="white"/>
<path d="M84.7881 200.006C84.8145 198.846 86.338 198.438 86.9407 199.429L91.4362 206.822C91.6419 207.161 92.0059 207.371 92.4018 207.38L101.052 207.576C102.212 207.603 102.62 209.126 101.629 209.729L94.2358 214.225C93.8975 214.43 93.6873 214.794 93.6783 215.19L93.4818 223.841C93.4554 225 91.9319 225.409 91.3293 224.418L86.8337 217.024C86.628 216.686 86.264 216.476 85.8681 216.467L77.2175 216.27C76.0577 216.244 75.6495 214.72 76.6407 214.118L84.0341 209.622C84.3725 209.416 84.5826 209.052 84.5916 208.656L84.7881 200.006Z" fill="white"/>
</svg>
