<svg width="29" height="19" viewBox="0 0 29 19" fill="none" xmlns="http://www.w3.org/2000/svg">
<path fill-rule="evenodd" clip-rule="evenodd" d="M18.8224 3.06992H26.2001V0.957227H18.8224V3.06992ZM22.459 7.31301C20.8133 7.31301 19.5634 8.3326 19.4431 10.2166H25.3475C24.9472 7.98067 23.954 7.31301 22.459 7.31301ZM22.6896 16.0512C24.2092 16.0512 25.3243 15.0913 25.5519 14.2826H28.7477C27.8342 17.2074 25.9477 18.85 22.5605 18.85C18.2381 18.85 15.8122 15.7757 15.8122 11.6963C15.8122 2.08933 29.6743 1.7449 28.9783 12.5933H19.4431C19.5359 14.7963 20.445 16.0512 22.6896 16.0512ZM8.3085 15.6286C10.0528 15.6286 11.2738 14.9576 11.2738 13.147C11.2738 11.269 10.195 10.4544 8.3839 10.4544H4.0136V15.6286H8.3085ZM8.07795 7.6302C9.5294 7.6302 10.5314 6.95457 10.5314 5.38511C10.5314 3.73179 9.36555 3.22144 7.772 3.22144H4.0136V7.6302H8.07795ZM8.5898 0C12.0278 0 14.4174 1.13636 14.4174 4.67214C14.4174 6.42282 13.7141 7.72747 11.9379 8.60654C14.2115 9.28195 15.2873 11.0554 15.2873 13.3856C15.2873 17.0846 12.354 18.85 8.845 18.85H0V0H8.5898Z" fill="#292929"/>
</svg>
