<svg width="52" height="57" viewBox="0 0 52 57" fill="none" xmlns="http://www.w3.org/2000/svg">
<path d="M41.7073 3.56445L43.9042 9.50156L49.8413 11.6985L43.9042 13.8954L41.7073 19.8325L39.5104 13.8954L33.5732 11.6985L39.5104 9.50156L41.7073 3.56445Z" fill="#FDFF85"/>
<path d="M15.411 31.5294C12.1387 16.9084 23.5623 4.18664 40.4516 4.17923C41.0845 4.17896 41.2759 3.21927 40.6738 3.02398C14.1785 -5.56991 -0.667415 14.9654 1.14939 31.5294C2.3942 42.8785 9.77386 55.9316 28.2429 55.9316C45.1398 55.9316 49.8687 41.8915 50.9847 37.1438C51.1031 36.6405 50.507 36.3219 50.1142 36.6582C47.5035 38.893 40.8723 43.9047 33.5735 44.2338C26.7952 44.2338 17.4035 40.4321 15.411 31.5294Z" fill="white" stroke="white" stroke-width="0.5"/>
</svg>
