<svg width="194" height="24" viewBox="0 0 194 24" fill="none" xmlns="http://www.w3.org/2000/svg">
<path d="M168.82 8.54297C169.182 8.15234 169.895 7.83008 170.939 7.56641C171.994 7.30273 173.107 7.21484 174.279 7.30273C175.461 7.38086 176.076 7.75195 176.145 8.39648C175.959 8.86523 175.715 9.56836 175.402 10.4961C175.1 11.4238 174.963 12.2344 175.002 12.9277C175.031 13.6211 175.119 14.0117 175.275 14.0898C175.236 11.9707 175.92 10.3203 177.316 9.14844C178.703 7.9668 180.334 7.36133 182.199 7.30273C184.064 7.25391 185.734 7.71289 187.199 8.67969C188.283 9.65625 188.625 10.7793 188.234 12.0488C187.854 13.3281 187.258 14.5879 186.457 15.8281C185.891 16.7461 185.471 17.5664 185.188 18.2988C184.904 19.0215 184.992 19.5879 185.432 19.9883C185.93 20.3496 186.359 20.2812 186.711 19.7832C187.072 19.2852 187.307 18.6211 187.414 17.791C187.531 16.9609 187.473 16.2285 187.248 15.584L190.09 14.2168C190.568 16.7168 190.178 18.6406 188.938 19.998C187.688 21.3555 186.203 22.0586 184.465 22.0977C182.727 22.1465 181.359 21.4434 180.354 19.998C179.924 19.2656 179.68 18.416 179.621 17.4492C179.553 16.4824 179.846 15.1055 180.48 13.3281C180.812 12.3516 180.832 11.6094 180.539 11.1211C180.256 10.6328 179.846 10.3691 179.318 10.3301C178.791 10.291 178.322 10.457 177.922 10.8281C177.15 11.668 176.809 12.7227 176.867 14.0117C176.936 15.3008 177.209 16.5605 177.697 17.791C178.186 19.0215 178.684 19.9688 179.191 20.6328V21.3359V21.3457C179.162 21.3555 179.123 21.3652 179.094 21.3652C179.074 21.375 179.045 21.375 179.025 21.3848C177.512 21.7949 175.998 22.0098 174.504 22.0391C172.58 22.1562 170.705 21.9219 168.879 21.3457L168.869 20.6426C168.879 20.6426 168.879 20.6426 168.879 20.6328C169.797 20.0078 170.354 18.875 170.529 17.2441C170.705 15.6035 170.627 13.9727 170.275 12.3418C169.934 10.7109 169.445 9.72461 168.811 9.38281C168.693 9.30469 168.635 9.17773 168.635 9.01172C168.635 8.83594 168.703 8.67969 168.82 8.54297Z" fill="#1E1E1E"/>
<path d="M159.963 7.25391C162.102 7.25391 163.83 7.64453 165.129 8.43555C166.438 9.22656 167.395 10.1934 168 11.3164C168.615 12.4395 168.938 13.5527 168.977 14.6367C168.986 16.7266 168.107 18.4746 166.35 19.8906C164.582 21.3066 162.463 22.0098 159.973 22.0098C157.492 22.0098 155.383 21.3066 153.664 19.8906C151.936 18.4746 151.047 16.7266 150.979 14.6367C150.979 12.5957 151.838 10.8672 153.557 9.46094C155.285 8.04492 157.414 7.3125 159.963 7.25391ZM159.172 9.17773C158.654 9.29492 158.283 9.89062 158.078 10.9844C157.873 12.0781 157.873 13.3672 158.078 14.8711C158.293 16.3652 158.645 17.625 159.152 18.6309C159.66 19.6465 160.168 20.1152 160.686 20.0371C161.203 19.9297 161.564 19.3242 161.77 18.2402C161.975 17.1465 161.975 15.8574 161.77 14.3535C161.555 12.8594 161.203 11.5996 160.695 10.5938C160.188 9.57812 159.68 9.10938 159.172 9.17773Z" fill="#1E1E1E"/>
<path d="M142.092 7.25391C144.23 7.25391 145.959 7.64453 147.258 8.43555C148.566 9.22656 149.523 10.1934 150.129 11.3164C150.744 12.4395 151.066 13.5527 151.105 14.6367C151.115 16.7266 150.236 18.4746 148.479 19.8906C146.711 21.3066 144.592 22.0098 142.102 22.0098C139.621 22.0098 137.512 21.3066 135.793 19.8906C134.064 18.4746 133.176 16.7266 133.107 14.6367C133.107 12.5957 133.967 10.8672 135.686 9.46094C137.414 8.04492 139.543 7.3125 142.092 7.25391ZM141.301 9.17773C140.783 9.29492 140.412 9.89062 140.207 10.9844C140.002 12.0781 140.002 13.3672 140.207 14.8711C140.422 16.3652 140.773 17.625 141.281 18.6309C141.789 19.6465 142.297 20.1152 142.814 20.0371C143.332 19.9297 143.693 19.3242 143.898 18.2402C144.104 17.1465 144.104 15.8574 143.898 14.3535C143.684 12.8594 143.332 11.5996 142.824 10.5938C142.316 9.57812 141.809 9.10938 141.301 9.17773Z" fill="#1E1E1E"/>
<path d="M114.924 7.12706C115.217 7.12706 115.5 7.13682 115.793 7.15636C116.975 7.24425 117.59 7.60557 117.658 8.25987C117.619 8.338 117.59 8.42589 117.551 8.52354C117.6 8.54307 117.658 8.57237 117.658 8.57237C117.619 8.56261 117.58 8.56261 117.541 8.57237C117.365 9.02159 117.16 9.61729 116.916 10.3595C116.613 11.2872 116.477 12.0978 116.506 12.7911C116.545 13.4845 116.633 13.8751 116.789 13.9532C116.75 11.8341 117.434 10.1837 118.82 9.01182C120.217 7.83018 121.848 7.21495 123.713 7.16612C125.578 7.10753 127.238 7.57628 128.713 8.54307C129.797 9.51964 130.139 10.6427 129.748 11.9122C129.358 13.1915 128.772 14.4513 127.971 15.6915C127.404 16.6095 126.975 17.4298 126.701 18.1524C126.418 18.8849 126.506 19.4513 126.945 19.8517C127.443 20.213 127.873 20.1349 128.225 19.6466C128.576 19.1485 128.82 18.4845 128.928 17.6544C129.045 16.8243 128.986 16.0919 128.762 15.4474L131.604 14.0802C132.082 16.5802 131.692 18.504 130.451 19.8614C129.201 21.2189 127.717 21.922 125.979 21.961C124.24 22.0001 122.873 21.3067 121.867 19.8614C121.438 19.129 121.193 18.2794 121.135 17.3126C121.067 16.3458 121.359 14.9689 121.994 13.1915C122.326 12.2149 122.346 11.4728 122.053 10.9845C121.77 10.4962 121.359 10.2325 120.832 10.1935C120.305 10.1544 119.836 10.3204 119.436 10.6915C118.664 11.5314 118.322 12.586 118.381 13.8751C118.449 15.1642 118.723 16.4239 119.211 17.6446C119.699 18.8751 120.197 19.8321 120.705 20.4962V21.1993V21.2091C120.676 21.2189 120.637 21.2189 120.608 21.2286C120.588 21.2384 120.559 21.2384 120.539 21.2482C119.026 21.6485 117.512 21.8732 116.018 21.9025C114.094 22.0196 112.219 21.7853 110.393 21.2091L110.383 20.506V20.4962C110.393 20.4962 110.393 20.4962 110.393 20.4962C111.311 19.8614 111.867 18.7286 112.043 17.0978C112.248 15.0372 112.317 10.7403 109.777 10.213C109.25 10.1739 108.781 10.3399 108.381 10.711C107.609 11.5509 107.268 12.6153 107.326 13.8946C107.395 15.1837 107.668 16.4435 108.156 17.6739C108.645 18.9044 109.143 19.8517 109.651 20.5157V21.2189C106.33 22.3614 100.959 22.0489 99.338 21.2286L99.3282 20.5255H99.338C99.338 20.5157 99.338 20.5157 99.338 20.5157C100.256 19.8907 100.813 18.7579 100.988 17.1271C101.164 15.4864 101.076 13.8556 100.734 12.2247C100.393 10.5939 99.9044 9.60753 99.2697 9.26573C99.1525 9.18761 99.0939 9.06065 99.0939 8.89464C99.0939 8.71886 99.1622 8.56261 99.2794 8.42589C99.6407 8.03526 100.354 7.713 101.399 7.44932C102.453 7.18565 103.567 7.09776 104.738 7.18565C105.92 7.26378 106.535 7.63487 106.604 8.2794C106.418 8.74815 106.174 9.45128 105.861 10.379C105.559 11.3067 105.422 12.1173 105.451 12.8107C105.49 13.504 105.578 13.8946 105.734 13.9728C105.695 11.8536 106.379 10.2032 107.766 9.03136C109.553 7.56651 112.414 7.10753 114.924 7.12706Z" fill="#1E1E1E"/>
<path d="M93.254 2.61536C94.1818 2.60559 95.0216 2.79114 95.754 3.172C96.5353 3.80676 97.0333 4.49036 97.2482 5.22278C97.463 5.9552 97.5216 6.67786 97.4142 7.40051C97.297 8.12317 97.1505 8.797 96.9552 9.422C96.9161 9.58801 96.8673 9.74426 96.8282 9.90051C96.506 11.0822 96.2911 12.4298 96.1837 13.9532C96.0861 14.7638 96.174 15.8673 96.4669 17.2833C96.7501 18.6896 97.3263 19.8126 98.1857 20.6427L98.1954 21.3458C94.7384 22.2833 91.3204 22.2833 87.9415 21.3458V20.6427C88.8595 20.0372 89.4259 19.0118 89.6407 17.5763C89.8556 16.1505 89.8068 15.1251 89.504 14.5001C89.2013 13.1622 88.7325 12.3419 88.0978 12.0197C87.9904 11.9415 87.9318 11.8146 87.9318 11.6486C87.9318 11.4728 88.0001 11.3165 88.1173 11.1798C88.5958 11.004 89.2697 10.8673 90.129 10.7697C90.92 10.6818 91.7501 10.5353 92.6095 10.3302C93.4689 10.1154 94.2404 9.77356 94.9044 9.28528C95.5685 8.797 96.0177 8.07434 96.2325 7.13684C95.7736 7.8595 95.1876 8.41614 94.465 8.82629C93.7423 9.23645 92.9611 9.3927 92.1115 9.27551C91.2716 9.16809 90.4415 8.69934 89.631 7.86926C89.1329 7.06848 88.9865 6.2677 89.1915 5.48645C89.3868 4.69543 89.8556 4.04114 90.5685 3.50403C91.2911 2.96692 92.1896 2.67395 93.254 2.61536Z" fill="#1E1E1E"/>
<path d="M85.1681 4.31445C85.1095 4.56836 85.0411 4.94922 84.963 5.4668C84.8849 5.98438 84.8068 6.43359 84.7286 6.82422H86.1642C86.3693 6.82422 86.5548 6.94141 86.7013 7.19531C86.8478 7.43945 86.9259 7.66406 86.9259 7.87891C86.9259 8.08398 86.8478 8.26953 86.7013 8.41602C86.5548 8.5625 86.3693 8.64062 86.1642 8.64062H84.5431C84.5333 8.69922 84.5236 8.76758 84.5138 8.8457C84.504 8.91406 84.504 8.98242 84.4943 9.03125C84.2404 11.0527 84.2794 13.377 84.6212 16.0039C84.8947 18.0645 85.4806 19.5684 86.3693 20.5059V21.1992C83.0099 21.8828 80.6368 22.0879 79.2599 21.834C77.8829 21.5703 77.1115 20.9648 76.9454 20.0176C76.7794 19.0703 76.8282 17.8984 77.0919 16.502C77.3068 15.3105 77.4142 14.041 77.424 12.6934C77.4337 11.3457 77.0919 9.98828 76.3986 8.64062H75.92C75.7052 8.64062 75.5294 8.5625 75.3829 8.41602C75.2365 8.26953 75.1583 8.08398 75.1583 7.87891C75.1583 7.66406 75.2365 7.46875 75.3829 7.29297C75.5294 7.10742 75.7052 7.01953 75.92 7.01953C76.6329 7.01953 77.3263 6.87305 78.0001 6.58984C78.6642 6.30664 79.338 5.95508 80.0021 5.54492C80.7052 5.11523 81.4279 4.72461 82.1603 4.40234C82.8927 4.07031 83.5763 3.9043 84.1915 3.89453C84.8068 3.89453 85.1388 4.03125 85.1681 4.31445Z" fill="#1E1E1E"/>
<path d="M65.4619 13.6308C64.5928 14.2363 63.8799 14.9394 63.333 15.7207C62.7764 16.5117 62.5323 17.1758 62.6006 17.7031C62.6592 18.2305 62.9619 18.3867 63.5186 18.1621C64.0655 17.9375 64.5537 17.4492 64.9932 16.7168C65.4229 15.9746 65.5791 14.9492 65.4619 13.6308ZM72.7471 14.2851C72.8741 16.2285 73.0791 17.625 73.3721 18.4941C73.5186 18.8652 73.7334 19.0996 73.9971 19.1777C74.2608 19.2656 74.5049 19.2168 74.7198 19.0508C74.9248 18.875 75.0518 18.6406 75.0909 18.3476H75.7256C75.5791 19.3047 74.9346 20.1641 73.8018 20.9355C72.669 21.6973 71.3604 22.0488 69.8858 21.9902C68.4014 21.9219 67.4346 21.3848 66.9756 20.3789C66.5166 19.3633 66.585 17.9082 67.2002 16.0137C67.21 15.8672 67.2002 15.7793 67.1807 15.75C67.1612 15.7305 67.1221 15.7891 67.0635 15.9355C66.1162 18.4844 65.042 20.1933 63.8409 21.0723C62.6299 21.9609 61.1455 22.1953 59.378 21.8047C57.6104 21.4043 56.6338 20.4863 56.4287 19.041C56.2237 17.5957 56.585 16.4043 57.5323 15.4668C58.4795 14.5293 60.003 13.8848 62.1026 13.5332C64.2022 13.1719 65.3936 12.3223 65.6866 10.9551C65.8526 10.0273 65.5401 9.36327 64.7393 8.95311C63.9385 8.54296 62.8643 8.49413 61.5166 8.80663C62.4053 8.7578 63.0694 9.06053 63.4893 9.71483C63.9092 10.3691 63.9873 11.0723 63.7139 11.8144C63.4307 12.5566 62.6885 13.0449 61.4776 13.2793C60.0909 13.4062 59.1045 13.0058 58.5284 12.0586C57.9522 11.1211 58.2061 10.0469 59.2998 8.83592C60.7549 7.65428 62.7471 7.14647 65.2959 7.28319C67.8448 7.42967 69.6905 8.15233 70.8428 9.44139C71.9854 10.7305 72.6201 12.3418 72.7471 14.2851Z" fill="#1E1E1E"/>
<path d="M41.8876 9.02168C43.5868 7.71308 45.9208 7.11738 48.1669 7.19551C51.1064 7.33223 55.0907 8.27949 55.2177 12.1271C55.3251 15.3498 49.8564 17.8303 47.1122 15.2912C47.2978 17.3322 48.2548 18.5139 50.0029 18.7971C51.7607 19.09 53.372 18.5627 54.8564 17.215C55.0029 17.049 55.1298 17.01 55.2275 17.0979C55.3251 17.1857 55.3349 17.3518 55.2665 17.5959C54.7099 19.0119 53.8993 20.0373 52.8349 20.6721C51.7802 21.3068 50.6376 21.6877 49.4462 21.8146C48.245 21.9416 47.1708 21.9416 46.2236 21.8244C43.6454 21.4436 41.7607 20.4475 40.5888 18.8752C39.4071 17.3127 38.9384 15.5842 39.163 13.7287C39.3779 11.8635 40.2958 10.2912 41.8876 9.02168ZM48.5282 8.90449C48.4501 8.90449 48.3818 8.91426 48.3036 8.92402C47.8739 9.06074 47.5419 9.42207 47.3075 10.0275C47.0634 10.6232 46.9755 11.2971 47.0341 12.0783C47.1025 12.84 47.2978 13.4553 47.6396 13.9143C47.9716 14.3928 48.3525 14.5686 48.7626 14.4709C49.1728 14.3635 49.5048 14.0119 49.7392 13.3967C49.9931 12.7814 50.081 12.0881 50.0126 11.3264C49.954 10.5646 49.7489 9.94941 49.4169 9.48066C49.1435 9.0998 48.8505 8.90449 48.5282 8.90449Z" fill="#1E1E1E"/>
<path d="M28.0985 13.8752C28.3524 12.5373 28.7235 11.4045 29.2313 10.4572C29.7391 9.50992 30.452 8.71891 31.3895 8.08414C32.3172 7.45914 33.6649 7.15641 35.4129 7.17594C36.2235 7.26383 36.9266 7.53726 37.5321 8.00601C38.1376 8.47476 38.4696 9.12906 38.5184 9.98844C38.5184 11.3849 38.1083 12.381 37.2782 12.9865C36.4481 13.592 35.5594 13.8166 34.6219 13.6798C33.6747 13.5431 33.0204 13.0548 32.6688 12.2248C32.4149 11.7853 32.2782 11.1408 32.2586 10.3107C30.7157 11.1115 29.9247 12.5959 29.8856 14.7541C29.8465 16.9123 30.5887 18.8556 32.1122 20.5841V21.3068C31.5848 21.6291 30.5399 21.8439 28.9774 21.9513C27.4149 22.0587 25.8817 22.049 24.368 21.9416C22.8641 21.8341 21.9266 21.6193 21.5555 21.3068L21.5458 20.5841C22.5126 20.008 23.1083 18.8752 23.3231 17.2052C23.5477 15.5255 23.4989 13.8947 23.1766 12.2931C22.8543 10.6916 22.3758 9.715 21.7215 9.3732C21.5262 9.29508 21.4383 9.17789 21.4579 9.00211C21.4774 8.82633 21.5653 8.66031 21.7313 8.50406C22.0926 8.1818 22.7762 7.87906 23.8114 7.58609C24.8465 7.29312 25.9403 7.16617 27.1122 7.215C28.2743 7.26383 28.8993 7.64469 28.9774 8.34781C28.8114 8.7775 28.5965 9.4318 28.3231 10.2912C28.0594 11.1603 27.9227 11.9904 27.9129 12.7814C27.9032 13.5822 27.9715 13.9435 28.0985 13.8752Z" fill="#1E1E1E"/>
<path d="M98.0138 5C98.0138 7.76142 95.7752 10 93.0138 10C90.2524 10 88.0138 7.76142 88.0138 5C88.0138 2.23858 90.2524 0 93.0138 0C95.7752 0 98.0138 2.23858 98.0138 5Z" fill="#FDFF85"/>
<path d="M93.0138 1L94.0942 3.91964L97.0138 5L94.0942 6.08036L93.0138 9L91.9334 6.08036L89.0138 5L91.9334 3.91964L93.0138 1Z" fill="#1E1E1E"/>
<path d="M193.032 13.7844L190.848 14.5511L190.051 16.5888L189.227 14.5619L187.032 13.8246L189.217 13.0579L190.014 11.0201L190.838 13.047L193.032 13.7844Z" fill="#1E1E1E"/>
<path d="M16.0137 4L16.8239 6.18973L19.0137 7L16.8239 7.81027L16.0137 10L15.2034 7.81027L13.0137 7L15.2034 6.18973L16.0137 4Z" fill="#1E1E1E"/>
<path d="M6.31507 14.3143C5.10819 8.92179 9.32146 4.22974 15.5505 4.22701C15.784 4.22691 15.8546 3.87295 15.6325 3.80093C5.86049 0.631326 0.385023 8.20516 1.0551 14.3143C1.51421 18.5001 4.23598 23.3144 11.0477 23.3144C17.2797 23.3144 19.0238 18.1361 19.4354 16.385C19.479 16.1994 19.2592 16.0819 19.1143 16.2059C18.1514 17.0302 15.7057 18.8786 13.0138 19C10.5138 19 7.04994 17.5978 6.31507 14.3143Z" fill="#1E1E1E" stroke="#1E1E1E" stroke-width="0.5"/>
</svg>
