<svg width="194" height="24" viewBox="0 0 194 24" fill="none" xmlns="http://www.w3.org/2000/svg">
<path d="M168.807 8.54272C169.168 8.1521 169.881 7.82983 170.926 7.56616C171.981 7.30249 173.094 7.2146 174.266 7.30249C175.447 7.38062 176.063 7.75171 176.131 8.39624C175.945 8.86499 175.701 9.56812 175.389 10.4958C175.086 11.4236 174.949 12.2341 174.988 12.9275C175.018 13.6208 175.106 14.0115 175.262 14.0896C175.223 11.9705 175.906 10.3201 177.303 9.14819C178.69 7.96655 180.32 7.36108 182.186 7.30249C184.051 7.25366 185.721 7.71265 187.186 8.67944C188.27 9.65601 188.611 10.7791 188.221 12.0486C187.84 13.3279 187.244 14.5876 186.443 15.8279C185.877 16.7458 185.457 17.5662 185.174 18.2986C184.891 19.0212 184.979 19.5876 185.418 19.988C185.916 20.3494 186.346 20.281 186.697 19.783C187.059 19.2849 187.293 18.6208 187.4 17.7908C187.518 16.9607 187.459 16.2283 187.234 15.5837L190.076 14.2166C190.555 16.7166 190.164 18.6404 188.924 19.9978C187.674 21.3552 186.19 22.0583 184.451 22.0974C182.713 22.1462 181.346 21.4431 180.34 19.9978C179.91 19.2654 179.666 18.4158 179.607 17.449C179.539 16.4822 179.832 15.1052 180.467 13.3279C180.799 12.3513 180.818 11.6091 180.525 11.1208C180.242 10.6326 179.832 10.3689 179.305 10.3298C178.777 10.2908 178.309 10.4568 177.908 10.8279C177.137 11.6677 176.795 12.7224 176.854 14.0115C176.922 15.3005 177.195 16.5603 177.684 17.7908C178.172 19.0212 178.67 19.9685 179.178 20.6326V21.3357V21.3455C179.148 21.3552 179.109 21.365 179.08 21.365C179.061 21.3748 179.031 21.3748 179.012 21.3845C177.498 21.7947 175.984 22.0095 174.49 22.0388C172.566 22.156 170.691 21.9216 168.865 21.3455L168.856 20.6423C168.865 20.6423 168.865 20.6423 168.865 20.6326C169.783 20.0076 170.34 18.8748 170.516 17.2439C170.691 15.6033 170.613 13.9724 170.262 12.3416C169.92 10.7107 169.432 9.72437 168.797 9.38257C168.68 9.30444 168.621 9.17749 168.621 9.01147C168.621 8.83569 168.69 8.67944 168.807 8.54272Z" fill="#FDFF85"/>
<path d="M159.949 7.25391C162.088 7.25391 163.816 7.64453 165.115 8.43555C166.424 9.22656 167.381 10.1934 167.986 11.3164C168.602 12.4395 168.924 13.5527 168.963 14.6367C168.973 16.7266 168.094 18.4746 166.336 19.8906C164.568 21.3066 162.449 22.0098 159.959 22.0098C157.479 22.0098 155.369 21.3066 153.65 19.8906C151.922 18.4746 151.033 16.7266 150.965 14.6367C150.965 12.5957 151.824 10.8672 153.543 9.46094C155.272 8.04492 157.4 7.3125 159.949 7.25391ZM159.158 9.17773C158.641 9.29492 158.27 9.89062 158.065 10.9844C157.859 12.0781 157.859 13.3672 158.065 14.8711C158.279 16.3652 158.631 17.625 159.139 18.6309C159.647 19.6465 160.154 20.1152 160.672 20.0371C161.19 19.9297 161.551 19.3242 161.756 18.2402C161.961 17.1465 161.961 15.8574 161.756 14.3535C161.541 12.8594 161.19 11.5996 160.682 10.5938C160.174 9.57812 159.666 9.10938 159.158 9.17773Z" fill="#FDFF85"/>
<path d="M142.078 7.25391C144.217 7.25391 145.945 7.64453 147.244 8.43555C148.553 9.22656 149.51 10.1934 150.115 11.3164C150.731 12.4395 151.053 13.5527 151.092 14.6367C151.102 16.7266 150.223 18.4746 148.465 19.8906C146.697 21.3066 144.578 22.0098 142.088 22.0098C139.607 22.0098 137.498 21.3066 135.779 19.8906C134.051 18.4746 133.162 16.7266 133.094 14.6367C133.094 12.5957 133.953 10.8672 135.672 9.46094C137.4 8.04492 139.529 7.3125 142.078 7.25391ZM141.287 9.17773C140.77 9.29492 140.398 9.89062 140.193 10.9844C139.988 12.0781 139.988 13.3672 140.193 14.8711C140.408 16.3652 140.76 17.625 141.268 18.6309C141.775 19.6465 142.283 20.1152 142.801 20.0371C143.318 19.9297 143.68 19.3242 143.885 18.2402C144.09 17.1465 144.09 15.8574 143.885 14.3535C143.67 12.8594 143.318 11.5996 142.811 10.5938C142.303 9.57812 141.795 9.10938 141.287 9.17773Z" fill="#FDFF85"/>
<path d="M114.91 7.12706C115.203 7.12706 115.486 7.13682 115.779 7.15636C116.961 7.24425 117.576 7.60557 117.645 8.25987C117.606 8.338 117.576 8.42589 117.537 8.52354C117.586 8.54307 117.645 8.57237 117.645 8.57237C117.606 8.56261 117.567 8.56261 117.527 8.57237C117.352 9.02159 117.147 9.61729 116.902 10.3595C116.6 11.2872 116.463 12.0978 116.492 12.7911C116.531 13.4845 116.619 13.8751 116.776 13.9532C116.736 11.8341 117.42 10.1837 118.807 9.01182C120.203 7.83018 121.834 7.21495 123.699 7.16612C125.565 7.10753 127.225 7.57628 128.699 8.54307C129.783 9.51964 130.125 10.6427 129.734 11.9122C129.344 13.1915 128.758 14.4513 127.957 15.6915C127.391 16.6095 126.961 17.4298 126.688 18.1524C126.404 18.8849 126.492 19.4513 126.932 19.8517C127.43 20.213 127.859 20.1349 128.211 19.6466C128.563 19.1485 128.807 18.4845 128.914 17.6544C129.031 16.8243 128.973 16.0919 128.748 15.4474L131.59 14.0802C132.068 16.5802 131.678 18.504 130.438 19.8614C129.188 21.2189 127.703 21.922 125.965 21.961C124.227 22.0001 122.859 21.3067 121.854 19.8614C121.424 19.129 121.18 18.2794 121.121 17.3126C121.053 16.3458 121.346 14.9689 121.981 13.1915C122.313 12.2149 122.332 11.4728 122.039 10.9845C121.756 10.4962 121.346 10.2325 120.818 10.1935C120.291 10.1544 119.822 10.3204 119.422 10.6915C118.651 11.5314 118.309 12.586 118.367 13.8751C118.436 15.1642 118.709 16.4239 119.197 17.6446C119.686 18.8751 120.184 19.8321 120.692 20.4962V21.1993V21.2091C120.662 21.2189 120.623 21.2189 120.594 21.2286C120.574 21.2384 120.545 21.2384 120.526 21.2482C119.012 21.6485 117.498 21.8732 116.004 21.9025C114.08 22.0196 112.205 21.7853 110.379 21.2091L110.369 20.506V20.4962C110.379 20.4962 110.379 20.4962 110.379 20.4962C111.297 19.8614 111.854 18.7286 112.029 17.0978C112.234 15.0372 112.303 10.7403 109.764 10.213C109.236 10.1739 108.768 10.3399 108.367 10.711C107.596 11.5509 107.254 12.6153 107.313 13.8946C107.381 15.1837 107.654 16.4435 108.143 17.6739C108.631 18.9044 109.129 19.8517 109.637 20.5157V21.2189C106.317 22.3614 100.945 22.0489 99.3243 21.2286L99.3146 20.5255H99.3243C99.3243 20.5157 99.3243 20.5157 99.3243 20.5157C100.242 19.8907 100.799 18.7579 100.975 17.1271C101.151 15.4864 101.063 13.8556 100.721 12.2247C100.379 10.5939 99.8907 9.60753 99.256 9.26573C99.1388 9.18761 99.0802 9.06065 99.0802 8.89464C99.0802 8.71886 99.1486 8.56261 99.2657 8.42589C99.6271 8.03526 100.34 7.713 101.385 7.44932C102.44 7.18565 103.553 7.09776 104.725 7.18565C105.906 7.26378 106.522 7.63487 106.59 8.2794C106.404 8.74815 106.16 9.45128 105.848 10.379C105.545 11.3067 105.408 12.1173 105.438 12.8107C105.477 13.504 105.565 13.8946 105.721 13.9728C105.682 11.8536 106.365 10.2032 107.752 9.03136C109.539 7.56651 112.401 7.10753 114.91 7.12706Z" fill="#FDFF85"/>
<path d="M93.2403 2.6156C94.1681 2.60583 95.0079 2.79138 95.7403 3.17224C96.5216 3.80701 97.0196 4.4906 97.2345 5.22302C97.4493 5.95544 97.5079 6.6781 97.4005 7.40076C97.2833 8.12341 97.1368 8.79724 96.9415 9.42224C96.9025 9.58826 96.8536 9.74451 96.8146 9.90076C96.4923 11.0824 96.2775 12.4301 96.17 13.9535C96.0724 14.764 96.1603 15.8676 96.4532 17.2836C96.7364 18.6898 97.3126 19.8129 98.172 20.6429L98.1818 21.3461C94.7247 22.2836 91.3068 22.2836 87.9278 21.3461V20.6429C88.8458 20.0375 89.4122 19.0121 89.6271 17.5765C89.8419 16.1508 89.7931 15.1254 89.4903 14.5004C89.1876 13.1625 88.7189 12.3422 88.0841 12.0199C87.9767 11.9418 87.9181 11.8148 87.9181 11.6488C87.9181 11.473 87.9864 11.3168 88.1036 11.1801C88.5821 11.0043 89.256 10.8676 90.1153 10.7699C90.9064 10.682 91.7364 10.5355 92.5958 10.3304C93.4552 10.1156 94.2267 9.7738 94.8907 9.28552C95.5548 8.79724 96.004 8.07458 96.2189 7.13708C95.7599 7.85974 95.1739 8.41638 94.4513 8.82654C93.7286 9.23669 92.9474 9.39294 92.0978 9.27576C91.2579 9.16833 90.4278 8.69958 89.6173 7.86951C89.1193 7.06873 88.9728 6.26794 89.1778 5.48669C89.3732 4.69568 89.8419 4.04138 90.5548 3.50427C91.2775 2.96716 92.1759 2.67419 93.2403 2.6156Z" fill="white"/>
<path d="M85.1544 4.31445C85.0958 4.56836 85.0275 4.94922 84.9493 5.4668C84.8712 5.98438 84.7931 6.43359 84.715 6.82422H86.1505C86.3556 6.82422 86.5411 6.94141 86.6876 7.19531C86.8341 7.43945 86.9122 7.66406 86.9122 7.87891C86.9122 8.08398 86.8341 8.26953 86.6876 8.41602C86.5411 8.5625 86.3556 8.64062 86.1505 8.64062H84.5294C84.5196 8.69922 84.5099 8.76758 84.5001 8.8457C84.4903 8.91406 84.4903 8.98242 84.4806 9.03125C84.2267 11.0527 84.2657 13.377 84.6075 16.0039C84.881 18.0645 85.4669 19.5684 86.3556 20.5059V21.1992C82.9962 21.8828 80.6232 22.0879 79.2462 21.834C77.8693 21.5703 77.0978 20.9648 76.9318 20.0176C76.7657 19.0703 76.8146 17.8984 77.0782 16.502C77.2931 15.3105 77.4005 14.041 77.4103 12.6934C77.42 11.3457 77.0782 9.98828 76.3849 8.64062H75.9064C75.6915 8.64062 75.5157 8.5625 75.3693 8.41602C75.2228 8.26953 75.1446 8.08398 75.1446 7.87891C75.1446 7.66406 75.2228 7.46875 75.3693 7.29297C75.5157 7.10742 75.6915 7.01953 75.9064 7.01953C76.6193 7.01953 77.3126 6.87305 77.9864 6.58984C78.6505 6.30664 79.3243 5.95508 79.9884 5.54492C80.6915 5.11523 81.4142 4.72461 82.1466 4.40234C82.879 4.07031 83.5626 3.9043 84.1778 3.89453C84.7931 3.89453 85.1251 4.03125 85.1544 4.31445Z" fill="white"/>
<path d="M65.4482 13.6311C64.5791 14.2366 63.8662 14.9397 63.3193 15.7209C62.7627 16.512 62.5185 17.176 62.5869 17.7034C62.6455 18.2307 62.9482 18.387 63.5049 18.1623C64.0517 17.9377 64.54 17.4495 64.9795 16.717C65.4092 15.9748 65.5654 14.9495 65.4482 13.6311ZM72.7334 14.2854C72.8603 16.2287 73.0654 17.6252 73.3584 18.4944C73.5049 18.8655 73.7197 19.0998 73.9834 19.178C74.2471 19.2659 74.4912 19.217 74.706 19.051C74.9111 18.8752 75.0381 18.6409 75.0771 18.3479H75.7119C75.5654 19.3049 74.9209 20.1643 73.7881 20.9358C72.6553 21.6975 71.3467 22.0491 69.8721 21.9905C68.3877 21.9221 67.4209 21.385 66.9619 20.3791C66.5029 19.3635 66.5713 17.9084 67.1865 16.0139C67.1963 15.8674 67.1865 15.7795 67.167 15.7502C67.1474 15.7307 67.1084 15.7893 67.0498 15.9358C66.1025 18.4846 65.0283 20.1936 63.8271 21.0725C62.6162 21.9612 61.1318 22.1955 59.3642 21.8049C57.5967 21.4045 56.6201 20.4866 56.415 19.0412C56.2099 17.5959 56.5713 16.4045 57.5185 15.467C58.4658 14.5295 59.9892 13.885 62.0889 13.5334C64.1885 13.1721 65.3799 12.3225 65.6728 10.9553C65.8389 10.0276 65.5264 9.36351 64.7256 8.95336C63.9248 8.5432 62.8506 8.49437 61.5029 8.80687C62.3916 8.75804 63.0557 9.06078 63.4756 9.71508C63.8955 10.3694 63.9736 11.0725 63.7002 11.8147C63.417 12.5569 62.6748 13.0452 61.4639 13.2795C60.0771 13.4065 59.0908 13.0061 58.5146 12.0588C57.9385 11.1213 58.1924 10.0471 59.2861 8.83617C60.7412 7.65453 62.7334 7.14672 65.2822 7.28343C67.831 7.42992 69.6767 8.15258 70.8291 9.44164C71.9717 10.7307 72.6064 12.342 72.7334 14.2854Z" fill="white"/>
<path d="M41.8739 9.02143C43.5731 7.71284 45.9071 7.11714 48.1532 7.19526C51.0927 7.33198 55.077 8.27925 55.204 12.1269C55.3114 15.3496 49.8427 17.83 47.0985 15.291C47.2841 17.332 48.2411 18.5136 49.9891 18.7968C51.7469 19.0898 53.3583 18.5625 54.8427 17.2148C54.9891 17.0488 55.1161 17.0097 55.2137 17.0976C55.3114 17.1855 55.3212 17.3515 55.2528 17.5957C54.6962 19.0117 53.8856 20.0371 52.8212 20.6718C51.7665 21.3066 50.6239 21.6875 49.4325 21.8144C48.2313 21.9414 47.1571 21.9414 46.2098 21.8242C43.6317 21.4433 41.7469 20.4472 40.5751 18.875C39.3934 17.3125 38.9247 15.5839 39.1493 13.7285C39.3641 11.8632 40.2821 10.291 41.8739 9.02143ZM48.5145 8.90425C48.4364 8.90425 48.368 8.91401 48.2899 8.92378C47.8602 9.0605 47.5282 9.42182 47.2938 10.0273C47.0497 10.623 46.9618 11.2968 47.0204 12.0781C47.0887 12.8398 47.2841 13.455 47.6259 13.914C47.9579 14.3925 48.3387 14.5683 48.7489 14.4707C49.1591 14.3632 49.4911 14.0117 49.7255 13.3964C49.9794 12.7812 50.0673 12.0878 49.9989 11.3261C49.9403 10.5644 49.7352 9.94917 49.4032 9.48042C49.1298 9.09956 48.8368 8.90425 48.5145 8.90425Z" fill="white"/>
<path d="M28.0848 13.8749C28.3387 12.537 28.7098 11.4042 29.2176 10.4569C29.7254 9.50968 30.4383 8.71866 31.3758 8.0839C32.3035 7.4589 33.6512 7.15616 35.3992 7.17569C36.2098 7.26358 36.9129 7.53702 37.5184 8.00577C38.1238 8.47452 38.4559 9.12882 38.5047 9.98819C38.5047 11.3847 38.0945 12.3808 37.2645 12.9862C36.4344 13.5917 35.5457 13.8163 34.6082 13.6796C33.6609 13.5429 33.0066 13.0546 32.6551 12.2245C32.4012 11.7851 32.2645 11.1405 32.2449 10.3105C30.702 11.1112 29.9109 12.5956 29.8719 14.7538C29.8328 16.912 30.575 18.8554 32.0984 20.5839V21.3066C31.5711 21.6288 30.5262 21.8437 28.9637 21.9511C27.4012 22.0585 25.868 22.0487 24.3543 21.9413C22.8504 21.8339 21.9129 21.6191 21.5418 21.3066L21.532 20.5839C22.4988 20.0077 23.0945 18.8749 23.3094 17.205C23.534 15.5253 23.4852 13.8944 23.1629 12.2929C22.8406 10.6913 22.3621 9.71476 21.7078 9.37296C21.5125 9.29483 21.4246 9.17765 21.4441 9.00186C21.4637 8.82608 21.5516 8.66007 21.7176 8.50382C22.0789 8.18155 22.7625 7.87882 23.7977 7.58585C24.8328 7.29288 25.9266 7.16593 27.0984 7.21475C28.2606 7.26358 28.8856 7.64444 28.9637 8.34757C28.7977 8.77725 28.5828 9.43155 28.3094 10.2909C28.0457 11.1601 27.909 11.9901 27.8992 12.7812C27.8895 13.5819 27.9578 13.9433 28.0848 13.8749Z" fill="white"/>
<path d="M98.0001 5C98.0001 7.76142 95.7615 10 93.0001 10C90.2387 10 88.0001 7.76142 88.0001 5C88.0001 2.23858 90.2387 0 93.0001 0C95.7615 0 98.0001 2.23858 98.0001 5Z" fill="#292929"/>
<path d="M93.0001 1L94.0805 3.91964L97.0001 5L94.0805 6.08036L93.0001 9L91.9198 6.08036L89.0001 5L91.9198 3.91964L93.0001 1Z" fill="#FDFF85"/>
<path d="M193.019 13.7844L190.834 14.5511L190.037 16.5888L189.214 14.5619L187.019 13.8246L189.203 13.0579L190 11.0201L190.824 13.047L193.019 13.7844Z" fill="white"/>
<path d="M16 4L16.8103 6.18973L19 7L16.8103 7.81027L16 10L15.1897 7.81027L13 7L15.1897 6.18973L16 4Z" fill="#FDFF85"/>
<path d="M6.3014 14.3141C5.09452 8.92155 9.30778 4.2295 15.5369 4.22677C15.7703 4.22666 15.8409 3.87271 15.6188 3.80068C5.84682 0.631082 0.371351 8.20491 1.04143 14.3141C1.50054 18.4998 4.22231 23.3141 11.0341 23.3141C17.266 23.3141 19.0101 18.1358 19.4217 16.3848C19.4654 16.1991 19.2455 16.0817 19.1006 16.2057C18.1378 17.0299 15.6921 18.8783 13.0001 18.9997C10.5001 18.9997 7.03627 17.5976 6.3014 14.3141Z" fill="white" stroke="white" stroke-width="0.5"/>
</svg>
