<svg width="23" height="15" viewBox="0 0 23 15" fill="none" xmlns="http://www.w3.org/2000/svg">
<path d="M7.40444 10.875C8.36294 10.875 9.23959 11.4167 9.66822 12.2739L10.6562 14.25L22.4688 8.34375V6.65625L10.6562 0.75L9.66822 2.72606C9.23959 3.58331 8.36294 4.125 7.40444 4.125H7.28125V2.4375L0.53125 2.4375V12.5625H7.28125V10.875H7.40444ZM11.1777 3.48038L11.4106 3.01378L18.6955 6.65625L12.3438 6.65625V8.34375H18.6955L11.4114 11.9862L11.1785 11.5196C10.4588 10.081 9.01262 9.1875 7.40444 9.1875H7.28125V5.8125H7.40444C9.01262 5.8125 10.4588 4.91897 11.1777 3.48038ZM2.21875 10.875V4.125L5.59375 4.125V10.875H2.21875Z" fill="white"/>
</svg>
