<svg width="34" height="31" viewBox="0 0 34 31" fill="none" xmlns="http://www.w3.org/2000/svg">
<path d="M33.9994 2.9107C34.0156 1.94673 33.6665 1.05788 33.0166 0.407983C32.6639 0.0554044 32.0923 0.0554044 31.7397 0.408028C31.3871 0.760652 31.3871 1.33232 31.7397 1.6849C32.0405 1.98565 32.2018 2.41023 32.194 2.8805C32.1865 3.32915 32.0167 3.76236 31.7397 4.03932C31.1652 4.61378 25.4389 9.64112 20.9666 13.5528L19.8705 12.4568C23.1354 8.72121 27.187 4.10216 28.7718 2.34829L29.1323 2.70886C29.4849 3.06149 30.0566 3.06153 30.4092 2.70895C30.7618 2.35637 30.7619 1.78471 30.4093 1.43209L29.3854 0.408073C29.2161 0.238736 28.9864 0.143572 28.7469 0.143572H28.7469C28.5074 0.143572 28.2778 0.238691 28.1085 0.407983C27.559 0.957392 24.1981 4.77459 21.1656 8.23518C20.3501 7.0008 19.2608 5.93891 17.9651 5.12378C16.0713 3.93237 13.8635 3.32829 11.4028 3.32829C10.8614 3.32829 10.3259 3.36242 9.81111 3.42982C9.31664 3.49456 8.96831 3.94781 9.033 4.44228C9.09774 4.9367 9.55094 5.28504 10.0454 5.22034C10.4828 5.1631 10.9395 5.13407 11.4027 5.13407C15.1495 5.13407 18.2923 6.81381 19.9221 9.65511C18.4013 11.393 17.0946 12.8898 16.4645 13.612C15.3396 13.7653 14.5002 14.2256 13.9084 15.015C13.3581 15.7489 13.1169 16.6254 12.8616 17.5534C12.5537 18.6724 12.2353 19.8294 11.3274 20.7373C11.0692 20.9955 10.9919 21.3838 11.1317 21.7213C11.2714 22.0587 11.6007 22.2786 11.9659 22.2786C14.3958 22.2786 16.3217 21.7607 17.6901 20.7393C18.9234 19.8187 19.6584 18.5118 19.8322 16.9424C22.1587 14.9106 32.1822 6.15055 33.0166 5.31618C33.6258 4.70696 33.9841 3.83016 33.9994 2.9107ZM19.6041 14.7441C19.3328 14.9811 19.0698 15.2109 18.8169 15.4317L17.9925 14.6074C18.2131 14.3545 18.4428 14.0913 18.6798 13.8199L19.6041 14.7441ZM16.61 19.2922C15.8998 19.8223 14.9546 20.1756 13.788 20.3487C14.185 19.5505 14.4077 18.7412 14.6027 18.0324C15.0211 16.5116 15.276 15.7483 16.3072 15.4759L17.9744 17.143C17.7908 18.0305 17.3341 18.7516 16.61 19.2922Z" fill="white"/>
<path d="M6.99197 6.08953C7.12347 6.08953 7.25705 6.06064 7.38341 5.99974C7.46445 5.96065 7.5477 5.92223 7.63076 5.88562C8.08695 5.68423 8.29353 5.15116 8.09214 4.69498C7.89075 4.23884 7.35773 4.03225 6.9015 4.2336C6.80006 4.27838 6.69835 4.32533 6.59916 4.37314C6.15002 4.5897 5.96145 5.1294 6.17797 5.57854C6.33362 5.90133 6.65609 6.08953 6.99197 6.08953Z" fill="white"/>
<path d="M13.5166 23.2819C13.0184 23.277 12.6092 23.6759 12.6036 24.1745C12.5646 27.6455 12.0406 29.194 9.03879 29.194C7.35598 29.194 5.58993 27.963 4.19352 25.8167C2.65377 23.4499 1.80578 20.377 1.80578 17.1641C1.80578 12.9931 3.06531 9.52255 5.35238 7.39191C5.71724 7.05202 5.73746 6.48067 5.39757 6.11581C5.05767 5.75096 4.48633 5.73073 4.12147 6.07062C2.77431 7.32569 1.73197 8.9564 1.02334 10.9175C0.344272 12.7967 0 14.8984 0 17.1641C0 20.7225 0.951782 24.1451 2.67991 26.8014C4.41576 29.4696 6.73353 30.9999 9.03879 30.9999C11.2437 30.9999 12.7805 30.224 13.6063 28.6938C14.3153 27.3799 14.3925 25.6826 14.4092 24.1948C14.4148 23.6962 14.0152 23.2874 13.5166 23.2819Z" fill="white"/>
<path d="M17.9596 9.91061C17.9596 8.252 16.6102 6.90259 14.9516 6.90259C13.2929 6.90259 11.9435 8.252 11.9435 9.91061C11.9435 11.5693 13.2929 12.9187 14.9516 12.9187C16.6102 12.9187 17.9596 11.5693 17.9596 9.91061ZM13.7493 9.91061C13.7493 9.24766 14.2886 8.70837 14.9516 8.70837C15.6145 8.70837 16.1538 9.24766 16.1538 9.91061C16.1538 10.5736 15.6145 11.1129 14.9516 11.1129C14.2886 11.1129 13.7493 10.5736 13.7493 9.91061Z" fill="white"/>
<path d="M7.78261 13.9997C9.44126 13.9997 10.7907 12.6503 10.7907 10.9917C10.7907 9.33306 9.44126 7.98364 7.78261 7.98364C6.12395 7.98364 4.77454 9.33306 4.77454 10.9917C4.77454 12.6503 6.12395 13.9997 7.78261 13.9997ZM7.78261 9.78942C8.44555 9.78942 8.98489 10.3288 8.98489 10.9917C8.98489 11.6547 8.44555 12.194 7.78261 12.194C7.11966 12.194 6.58032 11.6547 6.58032 10.9917C6.58032 10.3288 7.1197 9.78942 7.78261 9.78942Z" fill="white"/>
<path d="M8.48647 17.9029C8.48647 16.2442 7.13706 14.8948 5.47841 14.8948C3.81975 14.8948 2.47034 16.2442 2.47034 17.9029C2.47034 19.5615 3.81975 20.9109 5.47841 20.9109C7.13706 20.9109 8.48647 19.5615 8.48647 17.9029ZM5.47841 19.1051C4.81546 19.1051 4.27612 18.5658 4.27612 17.9029C4.27612 17.2399 4.81546 16.7006 5.47841 16.7006C6.14135 16.7006 6.68069 17.2399 6.68069 17.9029C6.68069 18.5658 6.14135 19.1051 5.47841 19.1051Z" fill="white"/>
<path d="M8.63888 27.9492C10.2975 27.9492 11.647 26.5997 11.647 24.9411C11.647 23.2825 10.2975 21.9331 8.63888 21.9331C6.98027 21.9331 5.63086 23.2825 5.63086 24.9411C5.63086 26.5997 6.98027 27.9492 8.63888 27.9492ZM8.63888 23.7389C9.30188 23.7389 9.84122 24.2782 9.84122 24.9411C9.84122 25.6041 9.30188 26.1434 8.63888 26.1434C7.97598 26.1434 7.43664 25.6041 7.43664 24.9411C7.43664 24.2782 7.97598 23.7389 8.63888 23.7389Z" fill="white"/>
</svg>
