<svg width="27" height="27" viewBox="0 0 27 27" fill="none" xmlns="http://www.w3.org/2000/svg">
<path fill-rule="evenodd" clip-rule="evenodd" d="M13.2917 20.5417C17.2957 20.5417 20.5417 17.2958 20.5417 13.2917C20.5417 9.28768 17.2957 6.04175 13.2917 6.04175C9.28762 6.04175 6.04169 9.28768 6.04169 13.2917C6.04169 17.2958 9.28762 20.5417 13.2917 20.5417ZM13.2917 18.1251C15.961 18.1251 18.125 15.9611 18.125 13.2917C18.125 10.6224 15.961 8.45841 13.2917 8.45841C10.6223 8.45841 8.45835 10.6224 8.45835 13.2917C8.45835 15.9611 10.6223 18.1251 13.2917 18.1251Z" fill="#292929"/>
<path d="M20.5417 4.8335C19.8743 4.8335 19.3334 5.37449 19.3334 6.04183C19.3334 6.70917 19.8743 7.25016 20.5417 7.25016C21.2091 7.25016 21.75 6.70917 21.75 6.04183C21.75 5.37449 21.2091 4.8335 20.5417 4.8335Z" fill="#292929"/>
<path fill-rule="evenodd" clip-rule="evenodd" d="M0.790202 3.95857C0 5.50943 0 7.53963 0 11.6V14.9833C0 19.0437 0 21.0739 0.790202 22.6247C1.48528 23.9889 2.59439 25.0981 3.95857 25.7931C5.50943 26.5833 7.53963 26.5833 11.6 26.5833H14.9833C19.0437 26.5833 21.0739 26.5833 22.6247 25.7931C23.9889 25.0981 25.0981 23.9889 25.7931 22.6247C26.5833 21.0739 26.5833 19.0437 26.5833 14.9833V11.6C26.5833 7.53963 26.5833 5.50943 25.7931 3.95857C25.0981 2.59439 23.9889 1.48528 22.6247 0.790202C21.0739 0 19.0437 0 14.9833 0H11.6C7.53963 0 5.50943 0 3.95857 0.790202C2.59439 1.48528 1.48528 2.59439 0.790202 3.95857ZM14.9833 2.41667H11.6C9.52993 2.41667 8.12272 2.41855 7.03501 2.50741C5.9755 2.59398 5.43368 2.75088 5.05572 2.94346C4.14626 3.40686 3.40686 4.14626 2.94346 5.05572C2.75088 5.43368 2.59398 5.9755 2.50741 7.03501C2.41855 8.12272 2.41667 9.52993 2.41667 11.6V14.9833C2.41667 17.0534 2.41855 18.4606 2.50741 19.5483C2.59398 20.6079 2.75088 21.1497 2.94346 21.5277C3.40686 22.4371 4.14626 23.1764 5.05572 23.6398C5.43368 23.8324 5.9755 23.9894 7.03501 24.0759C8.12272 24.1647 9.52993 24.1667 11.6 24.1667H14.9833C17.0534 24.1667 18.4606 24.1647 19.5483 24.0759C20.6079 23.9894 21.1497 23.8324 21.5277 23.6398C22.4371 23.1764 23.1764 22.4371 23.6398 21.5277C23.8324 21.1497 23.9894 20.6079 24.0759 19.5483C24.1647 18.4606 24.1667 17.0534 24.1667 14.9833V11.6C24.1667 9.52993 24.1647 8.12272 24.0759 7.03501C23.9894 5.9755 23.8324 5.43368 23.6398 5.05572C23.1764 4.14626 22.4371 3.40686 21.5277 2.94346C21.1497 2.75088 20.6079 2.59398 19.5483 2.50741C18.4606 2.41855 17.0534 2.41667 14.9833 2.41667Z" fill="#292929"/>
</svg>
