<svg width="25" height="17" viewBox="0 0 25 17" fill="none" xmlns="http://www.w3.org/2000/svg">
<path d="M22.9962 15.3963H22.7712L1.79 11.1775C1.52999 11.1273 1.29605 10.9869 1.12937 10.7811C0.96268 10.5753 0.873934 10.3173 0.878749 10.0525V5.87877C0.873934 5.61399 0.96268 5.356 1.12937 5.15022C1.29605 4.94443 1.52999 4.80405 1.79 4.75377L22.7712 0.625023C22.9338 0.591286 23.1019 0.593965 23.2633 0.632866C23.4248 0.671768 23.5756 0.745928 23.705 0.850023C23.8355 0.955906 23.9407 1.08969 24.0127 1.24154C24.0847 1.39339 24.1218 1.55945 24.1212 1.72752V14.2713C24.1202 14.4374 24.0823 14.6013 24.0103 14.7511C23.9383 14.9009 23.8341 15.0328 23.705 15.1375C23.5056 15.3028 23.2552 15.3942 22.9962 15.3963ZM3.12875 9.15252L21.8712 12.8988V3.05502L3.12875 6.80127V9.15252Z" fill="white"/>
<path d="M2.00381 13.2924C1.70544 13.2924 1.41929 13.1739 1.20832 12.9629C0.997337 12.7519 0.878811 12.4658 0.878811 12.1674V3.7749C0.878811 3.47653 0.997337 3.19039 1.20832 2.97941C1.41929 2.76843 1.70544 2.6499 2.00381 2.6499C2.30218 2.6499 2.58833 2.76843 2.79931 2.97941C3.01028 3.19039 3.12881 3.47653 3.12881 3.7749V12.1674C3.12881 12.3151 3.09971 12.4614 3.04318 12.5979C2.98664 12.7344 2.90377 12.8584 2.79931 12.9629C2.69484 13.0674 2.57082 13.1502 2.43433 13.2068C2.29784 13.2633 2.15155 13.2924 2.00381 13.2924Z" fill="white"/>
<path d="M9.87875 16.4426C8.60666 16.4426 7.38651 15.938 6.48596 15.0395C5.5854 14.1411 5.07798 12.9221 5.075 11.6501C5.07232 11.3211 5.10628 10.9928 5.17625 10.6713C5.20941 10.5272 5.27064 10.3911 5.35645 10.2707C5.44226 10.1503 5.55097 10.0479 5.67635 9.96959C5.80173 9.89122 5.94133 9.83834 6.08716 9.81397C6.23299 9.7896 6.3822 9.79422 6.52625 9.82755C6.67034 9.86071 6.80648 9.92194 6.92689 10.0078C7.04729 10.0936 7.1496 10.2023 7.22797 10.3277C7.30633 10.453 7.35921 10.5926 7.38358 10.7385C7.40795 10.8843 7.40334 11.0335 7.37 11.1776C7.35613 11.3347 7.35613 11.4929 7.37 11.6501C7.37644 12.2787 7.61455 12.8829 8.03874 13.3469C8.46293 13.811 9.04338 14.1022 9.66895 14.1649C10.2945 14.2276 10.9212 14.0573 11.4291 13.6867C11.9369 13.3161 12.2902 12.7712 12.4212 12.1563C12.4784 11.8642 12.6491 11.6066 12.8958 11.44C13.1425 11.2734 13.4452 11.2114 13.7375 11.2676C13.8833 11.2958 14.0221 11.3526 14.1458 11.4348C14.2695 11.5169 14.3758 11.6227 14.4584 11.7462C14.541 11.8696 14.5984 12.0081 14.6272 12.1538C14.656 12.2995 14.6557 12.4495 14.6262 12.5951C14.4024 13.6867 13.8068 14.6668 12.9411 15.3684C12.0753 16.07 10.9931 16.4497 9.87875 16.4426Z" fill="white"/>
<path d="M18.71 14.3501C18.4116 14.3501 18.1255 14.2316 17.9145 14.0206C17.7035 13.8096 17.585 13.5235 17.585 13.2251V2.5376C17.585 2.23923 17.7035 1.95308 17.9145 1.7421C18.1255 1.53112 18.4116 1.4126 18.71 1.4126C19.0084 1.4126 19.2945 1.53112 19.5055 1.7421C19.7165 1.95308 19.835 2.23923 19.835 2.5376V13.2251C19.835 13.5235 19.7165 13.8096 19.5055 14.0206C19.2945 14.2316 19.0084 14.3501 18.71 14.3501Z" fill="white"/>
</svg>
