<svg width="23" height="23" viewBox="0 0 23 23" fill="none" xmlns="http://www.w3.org/2000/svg">
<path d="M9.26207 13.2395L21.18 1.32593M9.60084 13.7752L12.3032 19.1801C12.9563 20.4862 13.2828 21.1393 13.6942 21.3144C14.0512 21.4664 14.4593 21.4388 14.7927 21.2404C15.1768 21.0117 15.4127 20.3206 15.8847 18.9386L20.9907 3.98518C21.4019 2.78105 21.6074 2.17899 21.4667 1.7807C21.3443 1.43422 21.0718 1.16167 20.7254 1.03926C20.327 0.898546 19.725 1.10413 18.5208 1.51529L3.5673 6.62138C2.18535 7.09326 1.49437 7.32921 1.26563 7.71335C1.06712 8.04671 1.03961 8.45479 1.19159 8.81172C1.36671 9.22309 2.01978 9.5497 3.32591 10.2027L8.73077 12.9052C8.94603 13.0128 9.05365 13.0666 9.14679 13.1384C9.2296 13.2023 9.30377 13.2764 9.36749 13.3591C9.43948 13.4524 9.49322 13.56 9.60084 13.7752Z" stroke="#1E1E1E" stroke-width="1.5" stroke-linecap="round" stroke-linejoin="round"/>
</svg>
