<svg width="52" height="52" viewBox="0 0 52 52" fill="none" xmlns="http://www.w3.org/2000/svg">
<path d="M20.375 45.0025C20.3734 43.4902 20.8708 42.0196 21.7899 40.8186C22.709 39.6176 23.9986 38.7534 25.4588 38.3598C26.919 37.9662 28.4683 38.0652 29.8665 38.6415C31.2647 39.2178 32.4338 40.2393 33.1925 41.5475C38.4175 39.2425 40.375 35.625 40.375 28.75V21.25C40.375 11.27 34.7475 4.375 26 4.375C17.2525 4.375 11.625 11.2725 11.625 21.25V30C11.6243 30.4971 11.4266 30.9736 11.0751 31.3251C10.7236 31.6766 10.2471 31.8743 9.75 31.875H7.25C5.42768 31.873 3.68053 31.1484 2.39172 29.8601C1.1029 28.5717 0.377647 26.8248 0.375 25.0025L0.375 22.5025C0.376984 20.6795 1.10187 18.9317 2.39068 17.6424C3.67949 16.3532 5.42702 15.6276 7.25 15.625H8.445C10.3375 6.6975 16.815 0.625 26 0.625C35.185 0.625 41.66 6.6975 43.5525 15.625H44.7475C46.5701 15.6276 48.3172 16.3528 49.6059 17.6416C50.8947 18.9303 51.6199 20.6774 51.6225 22.5V25C51.6205 26.8228 50.8956 28.5703 49.6067 29.8592C48.3178 31.148 46.5703 31.873 44.7475 31.875H43.975C43.8785 34.836 42.8851 37.6979 41.1262 40.0818C39.3672 42.4658 36.9258 44.2593 34.125 45.225C34.0955 47.0484 33.3429 48.7853 32.0327 50.0538C30.7225 51.3222 28.9621 52.0183 27.1387 51.9887C25.3154 51.9592 23.5784 51.2066 22.31 49.8964C21.0415 48.5863 20.3455 46.8259 20.375 45.0025ZM24.125 45.0025C24.125 45.6206 24.3083 46.2248 24.6517 46.7387C24.995 47.2526 25.4831 47.6531 26.0541 47.8896C26.6251 48.1261 27.2535 48.188 27.8597 48.0675C28.4658 47.9469 29.0227 47.6492 29.4597 47.2122C29.8967 46.7752 30.1944 46.2183 30.315 45.6122C30.4355 45.006 30.3736 44.3776 30.1371 43.8066C29.9006 43.2356 29.5001 42.7475 28.9862 42.4042C28.4723 42.0608 27.8681 41.8775 27.25 41.8775C26.4214 41.8782 25.6269 42.2076 25.041 42.7935C24.4551 43.3794 24.1257 44.1739 24.125 45.0025ZM44.125 28.1275H44.7475C45.5765 28.1275 46.3716 27.7983 46.9581 27.2124C47.5445 26.6264 47.8743 25.8315 47.875 25.0025V22.5025C47.875 21.6735 47.5458 20.8784 46.9599 20.2919C46.3739 19.7055 45.579 19.3757 44.75 19.375H44.125V28.1275ZM4.125 22.5025V25.0025C4.12632 25.8307 4.45607 26.6245 5.0419 27.2099C5.62774 27.7952 6.42183 28.1243 7.25 28.125H7.875V19.375H7.25C6.42097 19.3757 5.62612 19.7055 5.04014 20.2919C4.45416 20.8784 4.125 21.6735 4.125 22.5025Z" fill="black"/>
</svg>
