<svg width="32" height="23" viewBox="0 0 32 23" fill="none" xmlns="http://www.w3.org/2000/svg">
<path fill-rule="evenodd" clip-rule="evenodd" d="M24.403 21.9157C27.845 22.041 30.7392 19.3573 30.8736 15.9156V7.00433C30.7392 3.56269 27.845 0.87891 24.403 1.00422H7.47062C4.02863 0.87891 1.1344 3.56269 1 7.00433V15.9156C1.1344 19.3573 4.02863 22.041 7.47062 21.9157H24.403Z" stroke="black" stroke-width="2" stroke-linecap="round" stroke-linejoin="round"/>
<path fill-rule="evenodd" clip-rule="evenodd" d="M15.2019 7.24039L19.9235 10.4488C20.2294 10.6274 20.4174 10.955 20.4174 11.3091C20.4174 11.6634 20.2294 11.991 19.9235 12.1695L15.2019 15.6796C14.3057 16.2875 12.9495 15.7692 12.9495 14.8193V8.09776C12.9495 7.15226 14.3072 6.63246 15.2019 7.24039Z" stroke="black" stroke-width="2" stroke-linecap="round" stroke-linejoin="round"/>
</svg>
